STARTFONT 2.1
COMMENT $Xorg: $
COMMENT ISO10646-1 extension by Markus Kuhn <mkuhn@acm.org>, 2001-03-20
COMMENT  (c) Copyright Bigelow & Holmes 1986, 1985. Lucida is a registered
COMMENT  trademark of Bigelow & Holmes. See LEGAL NOTICE file for terms 
COMMENT  of the license. 
FONT -B&H-LucidaBright-DemiBold-R-Normal--17-120-100-100-P-101-ISO10646-1
SIZE 12 100 100
FONTBOUNDINGBOX 31 26 -11 -7
STARTPROPERTIES 22
COMMENT Begin LogicalFontDescription
FONTNAME_REGISTRY ""
FOUNDRY "B&H"
FAMILY_NAME "LucidaBright"
WEIGHT_NAME "DemiBold"
SLANT "R"
SETWIDTH_NAME "Normal"
ADD_STYLE_NAME ""
PIXEL_SIZE 17
POINT_SIZE 120
RESOLUTION_X 100
RESOLUTION_Y 100
SPACING "P"
AVERAGE_WIDTH 101
CHARSET_REGISTRY "ISO10646"
CHARSET_ENCODING "1"
COMMENT END LogicalFontDescription
FONT_ASCENT 15
FONT_DESCENT 4
DEFAULT_CHAR 0
COPYRIGHT "Copyright Bigelow & Holmes 1986, 1985."
FACE_NAME "Lucida Bright Demibold"
X_HEIGHT 9
CAP_HEIGHT 13
ENDPROPERTIES
CHARS 756
STARTCHAR char0
ENCODING 0
SWIDTH 798 0
DWIDTH 14 0
BBX 11 13 1 0
BITMAP
AAA0
0000
8020
0000
8020
0000
8020
0000
8020
0000
8020
0000
AAA0
ENDCHAR
STARTCHAR space
ENCODING 32
SWIDTH 333 0
DWIDTH 6 0
BBX 1 1 0 0
BITMAP
00
ENDCHAR
STARTCHAR exclam
ENCODING 33
SWIDTH 265 0
DWIDTH 4 0
BBX 2 13 1 0
BITMAP
C0
C0
C0
C0
C0
C0
40
40
40
00
00
C0
C0
ENDCHAR
STARTCHAR quotedbl
ENCODING 34
SWIDTH 461 0
DWIDTH 8 0
BBX 6 5 1 8
BITMAP
CC
CC
CC
48
48
ENDCHAR
STARTCHAR numbersign
ENCODING 35
SWIDTH 663 0
DWIDTH 11 0
BBX 11 13 0 0
BITMAP
0480
0880
0880
0880
7FE0
1100
1100
1100
FFC0
2200
2200
2200
2400
ENDCHAR
STARTCHAR dollar
ENCODING 36
SWIDTH 623 0
DWIDTH 11 0
BBX 7 15 2 -1
BITMAP
10
7E
D2
D2
D0
F0
70
38
1C
16
16
96
D6
FC
10
ENDCHAR
STARTCHAR percent
ENCODING 37
SWIDTH 759 0
DWIDTH 13 0
BBX 13 13 0 0
BITMAP
7818
8420
8460
84C0
8480
8500
7A00
04F0
0908
1908
3108
2108
C0F0
ENDCHAR
STARTCHAR ampersand
ENCODING 38
SWIDTH 765 0
DWIDTH 13 0
BBX 13 13 0 0
BITMAP
1F00
3180
3180
3180
1B00
3C00
6E78
CE30
C720
C3E0
C1C0
60E0
3FF8
ENDCHAR
STARTCHAR quotesingle
ENCODING 39
SWIDTH 253 0
DWIDTH 4 0
BBX 3 5 1 8
BITMAP
E0
E0
E0
40
40
ENDCHAR
STARTCHAR parenleft
ENCODING 40
SWIDTH 327 0
DWIDTH 6 0
BBX 4 16 1 -3
BITMAP
10
20
20
40
40
C0
C0
C0
C0
C0
C0
40
40
20
20
10
ENDCHAR
STARTCHAR parenright
ENCODING 41
SWIDTH 327 0
DWIDTH 6 0
BBX 4 16 1 -3
BITMAP
80
40
40
20
20
30
30
30
30
30
30
20
20
40
40
80
ENDCHAR
STARTCHAR asterisk
ENCODING 42
SWIDTH 434 0
DWIDTH 7 0
BBX 7 5 0 8
BITMAP
10
D6
6C
28
6C
ENDCHAR
STARTCHAR plus
ENCODING 43
SWIDTH 623 0
DWIDTH 11 0
BBX 9 11 1 0
BITMAP
0800
0800
0800
0800
0800
FF80
0800
0800
0800
0800
0800
ENDCHAR
STARTCHAR comma
ENCODING 44
SWIDTH 265 0
DWIDTH 4 0
BBX 3 6 1 -3
BITMAP
E0
E0
E0
20
20
C0
ENDCHAR
STARTCHAR hyphen
ENCODING 45
SWIDTH 289 0
DWIDTH 5 0
BBX 4 1 0 5
BITMAP
F0
ENDCHAR
STARTCHAR period
ENCODING 46
SWIDTH 265 0
DWIDTH 4 0
BBX 3 2 1 0
BITMAP
E0
E0
ENDCHAR
STARTCHAR slash
ENCODING 47
SWIDTH 527 0
DWIDTH 9 0
BBX 9 16 0 -3
BITMAP
0080
0100
0100
0200
0200
0400
0400
0800
0800
1000
1000
2000
2000
4000
4000
8000
ENDCHAR
STARTCHAR zero
ENCODING 48
SWIDTH 623 0
DWIDTH 11 0
BBX 10 13 0 0
BITMAP
1E00
3300
6180
4080
C0C0
C0C0
C0C0
C0C0
C0C0
4080
6180
3300
1E00
ENDCHAR
STARTCHAR one
ENCODING 49
SWIDTH 623 0
DWIDTH 11 0
BBX 6 13 2 0
BITMAP
F0
30
30
30
30
30
30
30
30
30
30
30
FC
ENDCHAR
STARTCHAR two
ENCODING 50
SWIDTH 623 0
DWIDTH 11 0
BBX 8 13 1 0
BITMAP
7C
C6
83
03
03
02
06
08
10
20
40
FF
FF
ENDCHAR
STARTCHAR three
ENCODING 51
SWIDTH 623 0
DWIDTH 11 0
BBX 7 13 2 0
BITMAP
F8
8E
86
06
04
08
78
0C
06
06
86
8C
F8
ENDCHAR
STARTCHAR four
ENCODING 52
SWIDTH 623 0
DWIDTH 11 0
BBX 9 13 1 0
BITMAP
0300
0700
0B00
1B00
1300
2300
4300
C300
FF80
0300
0300
0300
0780
ENDCHAR
STARTCHAR five
ENCODING 53
SWIDTH 623 0
DWIDTH 11 0
BBX 7 13 2 0
BITMAP
FE
80
80
80
F8
1C
0E
06
06
06
86
8C
F8
ENDCHAR
STARTCHAR six
ENCODING 54
SWIDTH 623 0
DWIDTH 11 0
BBX 9 13 1 0
BITMAP
1F00
3100
6100
C000
C000
DE00
E300
C180
C180
C180
4180
6300
1E00
ENDCHAR
STARTCHAR seven
ENCODING 55
SWIDTH 623 0
DWIDTH 11 0
BBX 8 13 2 0
BITMAP
FF
FF
03
06
04
0C
18
18
30
30
60
60
60
ENDCHAR
STARTCHAR eight
ENCODING 56
SWIDTH 623 0
DWIDTH 11 0
BBX 9 13 1 0
BITMAP
3E00
6380
C180
C180
F100
7E00
3E00
4700
C380
C180
C180
6300
3E00
ENDCHAR
STARTCHAR nine
ENCODING 57
SWIDTH 623 0
DWIDTH 11 0
BBX 9 13 1 0
BITMAP
3C00
6300
C100
C180
C180
C180
6380
3D80
0180
0180
4300
4600
7C00
ENDCHAR
STARTCHAR colon
ENCODING 58
SWIDTH 265 0
DWIDTH 4 0
BBX 2 9 1 0
BITMAP
C0
C0
00
00
00
00
00
C0
C0
ENDCHAR
STARTCHAR semicolon
ENCODING 59
SWIDTH 265 0
DWIDTH 4 0
BBX 2 12 1 -3
BITMAP
C0
C0
00
00
00
00
00
C0
C0
40
40
80
ENDCHAR
STARTCHAR less
ENCODING 60
SWIDTH 623 0
DWIDTH 11 0
BBX 10 11 0 0
BITMAP
0040
00C0
0300
0C00
3000
C000
3000
0C00
0300
00C0
0040
ENDCHAR
STARTCHAR equal
ENCODING 61
SWIDTH 623 0
DWIDTH 11 0
BBX 10 5 0 2
BITMAP
FFC0
0000
0000
0000
FFC0
ENDCHAR
STARTCHAR greater
ENCODING 62
SWIDTH 623 0
DWIDTH 11 0
BBX 10 11 0 0
BITMAP
8000
C000
3000
0C00
0300
00C0
0300
0C00
3000
C000
8000
ENDCHAR
STARTCHAR question
ENCODING 63
SWIDTH 505 0
DWIDTH 9 0
BBX 7 13 1 0
BITMAP
F8
CE
86
06
04
08
10
10
30
00
00
30
30
ENDCHAR
STARTCHAR at
ENCODING 64
SWIDTH 861 0
DWIDTH 15 0
BBX 13 13 1 0
BITMAP
07C0
1830
3010
6708
4888
8988
9188
9318
9730
9DE0
4000
6100
1E00
ENDCHAR
STARTCHAR A
ENCODING 65
SWIDTH 795 0
DWIDTH 14 0
BBX 14 13 0 0
BITMAP
0200
0300
0700
0580
0D80
09C0
08C0
10E0
1FE0
2070
2030
4038
E07C
ENDCHAR
STARTCHAR B
ENCODING 66
SWIDTH 639 0
DWIDTH 11 0
BBX 9 13 1 0
BITMAP
FF00
6380
6180
6180
6180
6300
7E00
6300
6180
6180
6180
6380
FE00
ENDCHAR
STARTCHAR C
ENCODING 67
SWIDTH 711 0
DWIDTH 12 0
BBX 11 13 0 0
BITMAP
0FE0
3060
6020
6000
C000
C000
C000
C000
C000
6000
6000
3820
0FC0
ENDCHAR
STARTCHAR D
ENCODING 68
SWIDTH 794 0
DWIDTH 13 0
BBX 12 13 1 0
BITMAP
FF80
60C0
6060
6030
6030
6030
6030
6030
6030
6020
6060
60C0
FF80
ENDCHAR
STARTCHAR E
ENCODING 69
SWIDTH 601 0
DWIDTH 10 0
BBX 9 13 1 0
BITMAP
FF00
6100
6000
6000
6000
6200
7E00
6200
6000
6000
6000
6080
FF80
ENDCHAR
STARTCHAR F
ENCODING 70
SWIDTH 584 0
DWIDTH 10 0
BBX 8 13 1 0
BITMAP
FF
61
60
60
60
62
7E
62
60
60
60
60
F8
ENDCHAR
STARTCHAR G
ENCODING 71
SWIDTH 753 0
DWIDTH 13 0
BBX 12 13 1 0
BITMAP
0FE0
3860
6020
6000
C000
C000
C000
C0F0
C060
6060
6060
3860
0FE0
ENDCHAR
STARTCHAR H
ENCODING 72
SWIDTH 798 0
DWIDTH 14 0
BBX 12 13 1 0
BITMAP
F0F0
6060
6060
6060
6060
6060
7FE0
6060
6060
6060
6060
6060
F0F0
ENDCHAR
STARTCHAR I
ENCODING 73
SWIDTH 349 0
DWIDTH 6 0
BBX 4 13 1 0
BITMAP
F0
60
60
60
60
60
60
60
60
60
60
60
F0
ENDCHAR
STARTCHAR J
ENCODING 74
SWIDTH 452 0
DWIDTH 8 0
BBX 7 16 0 -3
BITMAP
1E
0C
0C
0C
0C
0C
0C
0C
0C
0C
0C
0C
0C
8C
88
F0
ENDCHAR
STARTCHAR K
ENCODING 75
SWIDTH 747 0
DWIDTH 13 0
BBX 12 13 1 0
BITMAP
F1E0
60C0
6100
6200
6400
7800
7800
6C00
6600
6300
6380
61C0
F3F0
ENDCHAR
STARTCHAR L
ENCODING 76
SWIDTH 584 0
DWIDTH 10 0
BBX 9 13 1 0
BITMAP
F000
6000
6000
6000
6000
6000
6000
6000
6000
6000
6080
6080
FF80
ENDCHAR
STARTCHAR M
ENCODING 77
SWIDTH 904 0
DWIDTH 15 0
BBX 14 13 1 0
BITMAP
F03C
7038
7838
5878
5858
4CD8
4C98
4698
4718
4718
4218
4018
E03C
ENDCHAR
STARTCHAR N
ENCODING 78
SWIDTH 788 0
DWIDTH 13 0
BBX 12 13 1 0
BITMAP
E070
7020
7020
5820
5C20
4E20
4620
4320
43A0
41A0
40E0
4060
E060
ENDCHAR
STARTCHAR O
ENCODING 79
SWIDTH 810 0
DWIDTH 14 0
BBX 12 13 1 0
BITMAP
1F80
30C0
6060
6060
C030
C030
C030
C030
C030
6060
6060
30C0
1F80
ENDCHAR
STARTCHAR P
ENCODING 80
SWIDTH 614 0
DWIDTH 10 0
BBX 9 13 1 0
BITMAP
FF00
6380
6180
6180
6180
6180
6300
7C00
6000
6000
6000
6000
F800
ENDCHAR
STARTCHAR Q
ENCODING 81
SWIDTH 810 0
DWIDTH 14 0
BBX 14 16 1 -3
BITMAP
1F80
30C0
6060
6060
C030
C030
C030
C030
C030
6070
6060
30E0
1F80
00E0
0078
001C
ENDCHAR
STARTCHAR R
ENCODING 82
SWIDTH 720 0
DWIDTH 12 0
BBX 11 13 1 0
BITMAP
FF00
6380
6180
6180
6180
6300
7F00
6600
6700
6300
6380
6180
F0E0
ENDCHAR
STARTCHAR S
ENCODING 83
SWIDTH 556 0
DWIDTH 9 0
BBX 8 13 1 0
BITMAP
3E
62
C2
C0
E0
78
3C
0E
03
03
83
C6
FC
ENDCHAR
STARTCHAR T
ENCODING 84
SWIDTH 714 0
DWIDTH 12 0
BBX 10 13 1 0
BITMAP
FFC0
8C40
0C00
0C00
0C00
0C00
0C00
0C00
0C00
0C00
0C00
0C00
3F00
ENDCHAR
STARTCHAR U
ENCODING 85
SWIDTH 747 0
DWIDTH 13 0
BBX 12 13 0 0
BITMAP
F070
6020
6020
6020
6020
6020
6020
6020
6020
6020
6020
3040
1F80
ENDCHAR
STARTCHAR V
ENCODING 86
SWIDTH 753 0
DWIDTH 13 0
BBX 13 13 0 0
BITMAP
F878
7010
3020
3820
1860
1C40
0C40
0C80
0680
0780
0700
0300
0200
ENDCHAR
STARTCHAR W
ENCODING 87
SWIDTH 955 0
DWIDTH 16 0
BBX 16 13 0 0
BITMAP
F887
7082
31C4
31C4
31C4
3AC4
1A68
1A68
1C68
1C30
0C30
0C30
0830
ENDCHAR
STARTCHAR X
ENCODING 88
SWIDTH 702 0
DWIDTH 12 0
BBX 12 13 0 0
BITMAP
FC70
3860
1840
1880
0D80
0F00
0600
0B00
1380
1180
21C0
60E0
F1F0
ENDCHAR
STARTCHAR Y
ENCODING 89
SWIDTH 717 0
DWIDTH 12 0
BBX 12 13 0 0
BITMAP
FCF0
7020
3840
18C0
0C80
0D00
0700
0600
0600
0600
0600
0600
0F00
ENDCHAR
STARTCHAR Z
ENCODING 90
SWIDTH 639 0
DWIDTH 11 0
BBX 9 13 1 0
BITMAP
FF80
C300
8300
0600
0E00
0C00
1C00
1800
3800
3000
6080
6080
FF80
ENDCHAR
STARTCHAR bracketleft
ENCODING 91
SWIDTH 327 0
DWIDTH 6 0
BBX 4 16 1 -3
BITMAP
F0
C0
C0
C0
C0
C0
C0
C0
C0
C0
C0
C0
C0
C0
C0
F0
ENDCHAR
STARTCHAR backslash
ENCODING 92
SWIDTH 527 0
DWIDTH 9 0
BBX 9 16 0 -3
BITMAP
C000
4000
4000
2000
2000
1000
1000
0800
0800
0400
0400
0200
0200
0100
0100
0080
ENDCHAR
STARTCHAR bracketright
ENCODING 93
SWIDTH 327 0
DWIDTH 6 0
BBX 4 16 1 -3
BITMAP
F0
30
30
30
30
30
30
30
30
30
30
30
30
30
30
F0
ENDCHAR
STARTCHAR asciicircum
ENCODING 94
SWIDTH 623 0
DWIDTH 11 0
BBX 10 11 0 2
BITMAP
0400
0C00
0C00
0C00
1200
1200
2100
2100
4080
4080
8040
ENDCHAR
STARTCHAR underscore
ENCODING 95
SWIDTH 500 0
DWIDTH 8 0
BBX 7 1 1 -1
BITMAP
FE
ENDCHAR
STARTCHAR grave
ENCODING 96
SWIDTH 617 0
DWIDTH 10 0
BBX 4 2 3 11
BITMAP
E0
30
ENDCHAR
STARTCHAR a
ENCODING 97
SWIDTH 556 0
DWIDTH 9 0
BBX 8 9 1 0
BITMAP
7C
46
46
06
7E
E6
C6
C6
7F
ENDCHAR
STARTCHAR b
ENCODING 98
SWIDTH 640 0
DWIDTH 11 0
BBX 10 13 0 0
BITMAP
E000
6000
6000
6000
6F00
7180
60C0
60C0
60C0
60C0
60C0
7180
6F00
ENDCHAR
STARTCHAR c
ENCODING 99
SWIDTH 541 0
DWIDTH 9 0
BBX 8 9 0 0
BITMAP
3F
61
C1
C0
C0
C0
C0
60
3F
ENDCHAR
STARTCHAR d
ENCODING 100
SWIDTH 652 0
DWIDTH 11 0
BBX 10 13 1 0
BITMAP
0380
0180
0180
0180
3D80
6380
C180
C180
C180
C180
C180
6380
3DC0
ENDCHAR
STARTCHAR e
ENCODING 101
SWIDTH 568 0
DWIDTH 10 0
BBX 8 9 1 0
BITMAP
3C
62
C3
C3
FF
C0
C0
61
3F
ENDCHAR
STARTCHAR f
ENCODING 102
SWIDTH 416 0
DWIDTH 7 0
BBX 6 13 1 0
BITMAP
3C
64
64
60
F8
60
60
60
60
60
60
60
F0
ENDCHAR
STARTCHAR g
ENCODING 103
SWIDTH 599 0
DWIDTH 10 0
BBX 10 12 0 -3
BITMAP
1FC0
63C0
6300
6300
6300
3E00
2000
6000
3F80
C180
C380
7E00
ENDCHAR
STARTCHAR h
ENCODING 104
SWIDTH 654 0
DWIDTH 11 0
BBX 10 13 1 0
BITMAP
E000
6000
6000
6000
6F00
7180
6180
6180
6180
6180
6180
6180
F3C0
ENDCHAR
STARTCHAR i
ENCODING 105
SWIDTH 325 0
DWIDTH 6 0
BBX 4 13 1 0
BITMAP
60
60
00
00
E0
60
60
60
60
60
60
60
F0
ENDCHAR
STARTCHAR j
ENCODING 106
SWIDTH 355 0
DWIDTH 6 0
BBX 6 16 0 -3
BITMAP
0C
0C
00
00
3C
0C
0C
0C
0C
0C
0C
0C
0C
8C
8C
F8
ENDCHAR
STARTCHAR k
ENCODING 107
SWIDTH 654 0
DWIDTH 11 0
BBX 11 13 0 0
BITMAP
E000
6000
6000
6000
63C0
6180
6600
6C00
7C00
6E00
6700
6380
F1E0
ENDCHAR
STARTCHAR l
ENCODING 108
SWIDTH 325 0
DWIDTH 6 0
BBX 4 13 1 0
BITMAP
E0
60
60
60
60
60
60
60
60
60
60
60
F0
ENDCHAR
STARTCHAR m
ENCODING 109
SWIDTH 967 0
DWIDTH 16 0
BBX 16 9 0 0
BITMAP
EF3C
71C6
6186
6186
6186
6186
6186
6186
F3CF
ENDCHAR
STARTCHAR n
ENCODING 110
SWIDTH 654 0
DWIDTH 11 0
BBX 10 9 1 0
BITMAP
EF00
7180
6180
6180
6180
6180
6180
6180
F3C0
ENDCHAR
STARTCHAR o
ENCODING 111
SWIDTH 617 0
DWIDTH 10 0
BBX 9 9 1 0
BITMAP
3E00
6300
C180
C180
C180
C180
C180
6300
3E00
ENDCHAR
STARTCHAR p
ENCODING 112
SWIDTH 652 0
DWIDTH 11 0
BBX 10 12 0 -3
BITMAP
EF00
7180
60C0
60C0
60C0
60C0
60C0
7180
6F00
6000
6000
F000
ENDCHAR
STARTCHAR q
ENCODING 113
SWIDTH 640 0
DWIDTH 11 0
BBX 10 12 1 -3
BITMAP
3D80
6380
C180
C180
C180
C180
C180
6380
3D80
0180
0180
03C0
ENDCHAR
STARTCHAR r
ENCODING 114
SWIDTH 462 0
DWIDTH 8 0
BBX 6 9 1 0
BITMAP
EC
74
64
60
60
60
60
60
F8
ENDCHAR
STARTCHAR s
ENCODING 115
SWIDTH 525 0
DWIDTH 9 0
BBX 7 9 1 0
BITMAP
7C
C4
C4
F0
7C
1E
86
86
FC
ENDCHAR
STARTCHAR t
ENCODING 116
SWIDTH 389 0
DWIDTH 7 0
BBX 5 12 1 0
BITMAP
60
60
60
F8
60
60
60
60
60
60
60
38
ENDCHAR
STARTCHAR u
ENCODING 117
SWIDTH 654 0
DWIDTH 11 0
BBX 10 9 0 0
BITMAP
E380
6180
6180
6180
6180
6180
6180
6380
3DC0
ENDCHAR
STARTCHAR v
ENCODING 118
SWIDTH 657 0
DWIDTH 11 0
BBX 11 9 0 0
BITMAP
F8E0
7040
3080
1880
1900
0D00
0E00
0600
0400
ENDCHAR
STARTCHAR w
ENCODING 119
SWIDTH 880 0
DWIDTH 15 0
BBX 15 9 0 0
BITMAP
F98E
7184
31C8
32C8
3AD8
1C70
1C70
0C60
0820
ENDCHAR
STARTCHAR x
ENCODING 120
SWIDTH 608 0
DWIDTH 10 0
BBX 10 9 0 0
BITMAP
FBC0
7180
3B00
1E00
0C00
1600
3700
6380
E7C0
ENDCHAR
STARTCHAR y
ENCODING 121
SWIDTH 654 0
DWIDTH 11 0
BBX 11 12 0 -3
BITMAP
F8E0
7040
3080
1880
1900
1F00
0E00
0C00
0400
0800
1800
3000
ENDCHAR
STARTCHAR z
ENCODING 122
SWIDTH 584 0
DWIDTH 10 0
BBX 8 9 1 0
BITMAP
FF
86
0E
1C
18
30
70
61
FF
ENDCHAR
STARTCHAR braceleft
ENCODING 123
SWIDTH 366 0
DWIDTH 6 0
BBX 4 16 1 -3
BITMAP
30
60
60
60
60
60
60
C0
40
60
60
60
60
60
60
30
ENDCHAR
STARTCHAR bar
ENCODING 124
SWIDTH 259 0
DWIDTH 4 0
BBX 1 16 2 -3
BITMAP
80
80
80
80
80
80
80
80
80
80
80
80
80
80
80
80
ENDCHAR
STARTCHAR braceright
ENCODING 125
SWIDTH 366 0
DWIDTH 6 0
BBX 4 16 1 -3
BITMAP
C0
60
60
60
60
60
60
30
20
60
60
60
60
60
60
C0
ENDCHAR
STARTCHAR asciitilde
ENCODING 126
SWIDTH 623 0
DWIDTH 11 0
BBX 10 4 0 3
BITMAP
7040
8840
8440
8380
ENDCHAR
STARTCHAR space
ENCODING 160
SWIDTH 333 0
DWIDTH 6 0
BBX 1 1 0 0
BITMAP
00
ENDCHAR
STARTCHAR exclamdown
ENCODING 161
SWIDTH 265 0
DWIDTH 4 0
BBX 2 12 1 -3
BITMAP
C0
C0
00
40
40
40
C0
C0
C0
C0
C0
C0
ENDCHAR
STARTCHAR cent
ENCODING 162
SWIDTH 623 0
DWIDTH 11 0
BBX 8 13 1 0
BITMAP
08
3F
69
49
C8
C8
C8
C8
C8
48
68
3F
08
ENDCHAR
STARTCHAR sterling
ENCODING 163
SWIDTH 623 0
DWIDTH 11 0
BBX 8 13 2 0
BITMAP
0F
11
31
30
30
30
FC
30
30
30
60
FF
FF
ENDCHAR
STARTCHAR currency
ENCODING 164
SWIDTH 623 0
DWIDTH 11 0
BBX 11 11 0 1
BITMAP
8020
4040
3F80
3180
2080
2080
2080
3180
3F80
4040
8020
ENDCHAR
STARTCHAR yen
ENCODING 165
SWIDTH 623 0
DWIDTH 11 0
BBX 10 13 1 0
BITMAP
F9C0
7080
3080
3100
1900
1A00
0C00
3F00
0C00
3F00
0C00
0C00
1E00
ENDCHAR
STARTCHAR brokenbar
ENCODING 166
SWIDTH 259 0
DWIDTH 4 0
BBX 1 16 2 -3
BITMAP
80
80
80
80
80
80
80
00
00
80
80
80
80
80
80
80
ENDCHAR
STARTCHAR section
ENCODING 167
SWIDTH 623 0
DWIDTH 11 0
BBX 8 16 1 -3
BITMAP
3E
E2
C2
C0
F0
7C
9F
83
C1
F9
3E
0F
03
83
C7
FC
ENDCHAR
STARTCHAR dieresis
ENCODING 168
SWIDTH 617 0
DWIDTH 10 0
BBX 5 1 3 12
BITMAP
D8
ENDCHAR
STARTCHAR copyright
ENCODING 169
SWIDTH 855 0
DWIDTH 15 0
BBX 13 13 1 0
BITMAP
0F80
3040
6020
4790
8888
9008
9008
9008
8808
4790
6030
3060
0F80
ENDCHAR
STARTCHAR ordfeminine
ENCODING 170
SWIDTH 488 0
DWIDTH 8 0
BBX 7 7 1 6
BITMAP
F8
8C
0C
7C
CC
CC
7E
ENDCHAR
STARTCHAR guillemotleft
ENCODING 171
SWIDTH 566 0
DWIDTH 10 0
BBX 8 7 1 1
BITMAP
11
32
66
CC
66
32
11
ENDCHAR
STARTCHAR logicalnot
ENCODING 172
SWIDTH 623 0
DWIDTH 11 0
BBX 10 5 0 2
BITMAP
FFC0
0040
0040
0040
0040
ENDCHAR
STARTCHAR hyphen
ENCODING 173
SWIDTH 289 0
DWIDTH 5 0
BBX 4 1 0 5
BITMAP
F0
ENDCHAR
STARTCHAR registered
ENCODING 174
SWIDTH 623 0
DWIDTH 11 0
BBX 9 9 1 4
BITMAP
3E00
6300
DF80
9280
9C80
9480
D780
6300
3E00
ENDCHAR
STARTCHAR macron
ENCODING 175
SWIDTH 617 0
DWIDTH 10 0
BBX 5 1 3 12
BITMAP
F8
ENDCHAR
STARTCHAR degree
ENCODING 176
SWIDTH 259 0
DWIDTH 4 0
BBX 3 4 1 9
BITMAP
40
A0
A0
40
ENDCHAR
STARTCHAR plusminus
ENCODING 177
SWIDTH 623 0
DWIDTH 11 0
BBX 9 11 1 0
BITMAP
0800
0800
0800
0800
FF80
0800
0800
0800
0800
0000
FF80
ENDCHAR
STARTCHAR twosuperior
ENCODING 178
SWIDTH 374 0
DWIDTH 6 0
BBX 4 8 -10 5
BITMAP
E0
90
10
10
20
40
80
F0
ENDCHAR
STARTCHAR threesuperior
ENCODING 179
SWIDTH 374 0
DWIDTH 6 0
BBX 4 8 -10 5
BITMAP
E0
90
10
60
10
10
90
E0
ENDCHAR
STARTCHAR acute
ENCODING 180
SWIDTH 617 0
DWIDTH 10 0
BBX 4 2 4 11
BITMAP
70
C0
ENDCHAR
STARTCHAR mu
ENCODING 181
SWIDTH 705 0
DWIDTH 12 0
BBX 10 12 1 -3
BITMAP
E380
6180
6180
6180
6180
6180
6180
6380
7DC0
6000
6000
6000
ENDCHAR
STARTCHAR paragraph
ENCODING 182
SWIDTH 623 0
DWIDTH 11 0
BBX 6 16 2 -3
BITMAP
7C
F4
F4
F4
F4
74
34
14
14
14
14
14
14
14
14
14
ENDCHAR
STARTCHAR periodcentered
ENCODING 183
SWIDTH 623 0
DWIDTH 11 0
BBX 2 2 4 4
BITMAP
C0
C0
ENDCHAR
STARTCHAR cedilla
ENCODING 184
SWIDTH 617 0
DWIDTH 10 0
BBX 3 3 4 -3
BITMAP
C0
20
E0
ENDCHAR
STARTCHAR onesuperior
ENCODING 185
SWIDTH 374 0
DWIDTH 6 0
BBX 3 8 -11 5
BITMAP
C0
40
40
40
40
40
40
E0
ENDCHAR
STARTCHAR ordmasculine
ENCODING 186
SWIDTH 488 0
DWIDTH 8 0
BBX 7 7 1 6
BITMAP
38
6C
C6
C6
C6
6C
38
ENDCHAR
STARTCHAR guillemotright
ENCODING 187
SWIDTH 566 0
DWIDTH 10 0
BBX 8 7 1 1
BITMAP
88
4C
66
33
66
4C
88
ENDCHAR
STARTCHAR onequarter
ENCODING 188
SWIDTH 803 0
DWIDTH 14 0
BBX 12 13 3 0
BITMAP
C060
40C0
4080
4100
4300
4260
44E0
E9A0
1B20
13F0
2020
6020
C070
ENDCHAR
STARTCHAR onehalf
ENCODING 189
SWIDTH 803 0
DWIDTH 14 0
BBX 11 13 3 0
BITMAP
C060
40C0
4080
4100
4300
43C0
4520
E820
1820
1040
2080
6100
C1E0
ENDCHAR
STARTCHAR threequarters
ENCODING 190
SWIDTH 803 0
DWIDTH 14 0
BBX 12 13 3 0
BITMAP
E060
90C0
1080
6100
1300
1260
94E0
E9A0
1B20
13F0
2020
6020
C070
ENDCHAR
STARTCHAR questiondown
ENCODING 191
SWIDTH 505 0
DWIDTH 9 0
BBX 7 12 1 -3
BITMAP
18
18
00
18
18
10
20
40
C0
C2
E6
3E
ENDCHAR
STARTCHAR Agrave
ENCODING 192
SWIDTH 795 0
DWIDTH 14 0
BBX 14 16 0 0
BITMAP
0E00
0300
0000
0200
0300
0700
0580
0D80
09C0
08C0
10E0
1FE0
2070
2030
4038
E07C
ENDCHAR
STARTCHAR Aacute
ENCODING 193
SWIDTH 795 0
DWIDTH 14 0
BBX 14 16 0 0
BITMAP
01C0
0300
0000
0200
0300
0700
0580
0D80
09C0
08C0
10E0
1FE0
2070
2030
4038
E07C
ENDCHAR
STARTCHAR Acircumflex
ENCODING 194
SWIDTH 795 0
DWIDTH 14 0
BBX 14 16 0 0
BITMAP
0780
0CC0
0000
0200
0300
0700
0580
0D80
09C0
08C0
10E0
1FE0
2070
2030
4038
E07C
ENDCHAR
STARTCHAR Atilde
ENCODING 195
SWIDTH 795 0
DWIDTH 14 0
BBX 14 16 0 0
BITMAP
0740
0B80
0000
0200
0300
0700
0580
0D80
09C0
08C0
10E0
1FE0
2070
2030
4038
E07C
ENDCHAR
STARTCHAR Adieresis
ENCODING 196
SWIDTH 795 0
DWIDTH 14 0
BBX 14 15 0 0
BITMAP
06C0
0000
0200
0300
0700
0580
0D80
09C0
08C0
10E0
1FE0
2070
2030
4038
E07C
ENDCHAR
STARTCHAR Aring
ENCODING 197
SWIDTH 795 0
DWIDTH 14 0
BBX 14 16 0 0
BITMAP
0380
0380
0000
0200
0300
0700
0580
0D80
09C0
08C0
10E0
1FE0
2070
2030
4038
E07C
ENDCHAR
STARTCHAR AE
ENCODING 198
SWIDTH 959 0
DWIDTH 16 0
BBX 16 13 0 0
BITMAP
00FF
01C1
03C0
02C0
04C2
04FE
08C2
10C0
1FC0
20C0
20C0
40C1
E1FF
ENDCHAR
STARTCHAR Ccedilla
ENCODING 199
SWIDTH 711 0
DWIDTH 12 0
BBX 11 16 0 -3
BITMAP
0FE0
3060
6020
6000
C000
C000
C000
C000
C000
6000
6000
3820
0FC0
0400
0200
0E00
ENDCHAR
STARTCHAR Egrave
ENCODING 200
SWIDTH 601 0
DWIDTH 10 0
BBX 9 16 1 0
BITMAP
3800
0C00
0000
FF00
6100
6000
6000
6000
6200
7E00
6200
6000
6000
6000
6080
FF80
ENDCHAR
STARTCHAR Eacute
ENCODING 201
SWIDTH 601 0
DWIDTH 10 0
BBX 9 16 1 0
BITMAP
0E00
1800
0000
FF00
6100
6000
6000
6000
6200
7E00
6200
6000
6000
6000
6080
FF80
ENDCHAR
STARTCHAR Ecircumflex
ENCODING 202
SWIDTH 601 0
DWIDTH 10 0
BBX 9 16 1 0
BITMAP
1E00
3300
0000
FF00
6100
6000
6000
6000
6200
7E00
6200
6000
6000
6000
6080
FF80
ENDCHAR
STARTCHAR Edieresis
ENCODING 203
SWIDTH 601 0
DWIDTH 10 0
BBX 9 15 1 0
BITMAP
3600
0000
FF00
6100
6000
6000
6000
6200
7E00
6200
6000
6000
6000
6080
FF80
ENDCHAR
STARTCHAR Igrave
ENCODING 204
SWIDTH 349 0
DWIDTH 6 0
BBX 5 16 2 0
BITMAP
E0
30
00
78
30
30
30
30
30
30
30
30
30
30
30
78
ENDCHAR
STARTCHAR Iacute
ENCODING 205
SWIDTH 349 0
DWIDTH 6 0
BBX 5 16 1 0
BITMAP
38
60
00
F0
60
60
60
60
60
60
60
60
60
60
60
F0
ENDCHAR
STARTCHAR Icircumflex
ENCODING 206
SWIDTH 349 0
DWIDTH 6 0
BBX 6 16 2 0
BITMAP
78
CC
00
78
30
30
30
30
30
30
30
30
30
30
30
78
ENDCHAR
STARTCHAR Idieresis
ENCODING 207
SWIDTH 349 0
DWIDTH 6 0
BBX 5 15 2 0
BITMAP
D8
00
78
30
30
30
30
30
30
30
30
30
30
30
78
ENDCHAR
STARTCHAR Eth
ENCODING 208
SWIDTH 794 0
DWIDTH 13 0
BBX 13 13 0 0
BITMAP
FFC0
3060
3030
3018
3018
3018
FE18
3018
3018
3010
3030
3060
FFC0
ENDCHAR
STARTCHAR Ntilde
ENCODING 209
SWIDTH 788 0
DWIDTH 13 0
BBX 12 16 1 0
BITMAP
0E80
1700
0000
E070
7020
7020
5820
5C20
4E20
4620
4320
43A0
41A0
40E0
4060
E060
ENDCHAR
STARTCHAR Ograve
ENCODING 210
SWIDTH 810 0
DWIDTH 14 0
BBX 12 16 1 0
BITMAP
1C00
0600
0000
1F80
30C0
6060
6060
C030
C030
C030
C030
C030
6060
6060
30C0
1F80
ENDCHAR
STARTCHAR Oacute
ENCODING 211
SWIDTH 810 0
DWIDTH 14 0
BBX 12 16 1 0
BITMAP
0380
0600
0000
1F80
30C0
6060
6060
C030
C030
C030
C030
C030
6060
6060
30C0
1F80
ENDCHAR
STARTCHAR Ocircumflex
ENCODING 212
SWIDTH 810 0
DWIDTH 14 0
BBX 12 16 1 0
BITMAP
0F00
1980
0000
1F80
30C0
6060
6060
C030
C030
C030
C030
C030
6060
6060
30C0
1F80
ENDCHAR
STARTCHAR Otilde
ENCODING 213
SWIDTH 810 0
DWIDTH 14 0
BBX 12 16 1 0
BITMAP
0E80
1700
0000
1F80
30C0
6060
6060
C030
C030
C030
C030
C030
6060
6060
30C0
1F80
ENDCHAR
STARTCHAR Odieresis
ENCODING 214
SWIDTH 810 0
DWIDTH 14 0
BBX 12 15 1 0
BITMAP
1B00
0000
1F80
30C0
6060
6060
C030
C030
C030
C030
C030
6060
6060
30C0
1F80
ENDCHAR
STARTCHAR multiply
ENCODING 215
SWIDTH 623 0
DWIDTH 11 0
BBX 10 11 0 0
BITMAP
8040
40C0
2100
1300
1E00
0C00
1E00
3200
2100
C080
8040
ENDCHAR
STARTCHAR Oslash
ENCODING 216
SWIDTH 810 0
DWIDTH 14 0
BBX 12 13 1 0
BITMAP
1F10
30E0
6060
60F0
C1B0
C330
C630
CC30
D830
F060
6060
70C0
9F80
ENDCHAR
STARTCHAR Ugrave
ENCODING 217
SWIDTH 747 0
DWIDTH 13 0
BBX 12 16 0 0
BITMAP
1C00
0600
0000
F070
6020
6020
6020
6020
6020
6020
6020
6020
6020
6020
3040
1F80
ENDCHAR
STARTCHAR Uacute
ENCODING 218
SWIDTH 747 0
DWIDTH 13 0
BBX 12 16 0 0
BITMAP
0380
0600
0000
F070
6020
6020
6020
6020
6020
6020
6020
6020
6020
6020
3040
1F80
ENDCHAR
STARTCHAR Ucircumflex
ENCODING 219
SWIDTH 747 0
DWIDTH 13 0
BBX 12 16 0 0
BITMAP
0F00
1980
0000
F070
6020
6020
6020
6020
6020
6020
6020
6020
6020
6020
3040
1F80
ENDCHAR
STARTCHAR Udieresis
ENCODING 220
SWIDTH 747 0
DWIDTH 13 0
BBX 12 15 0 0
BITMAP
0D80
0000
F070
6020
6020
6020
6020
6020
6020
6020
6020
6020
6020
3040
1F80
ENDCHAR
STARTCHAR Yacute
ENCODING 221
SWIDTH 717 0
DWIDTH 12 0
BBX 12 16 0 0
BITMAP
0380
0600
0000
FCF0
7020
3840
18C0
0C80
0D00
0700
0600
0600
0600
0600
0600
0F00
ENDCHAR
STARTCHAR Thorn
ENCODING 222
SWIDTH 614 0
DWIDTH 10 0
BBX 9 13 1 0
BITMAP
F000
6000
6000
7F00
6380
6180
6180
6180
6300
7C00
6000
6000
F000
ENDCHAR
STARTCHAR germandbls
ENCODING 223
SWIDTH 700 0
DWIDTH 12 0
BBX 10 13 1 0
BITMAP
3E00
6300
6300
6200
6400
6C00
6E00
6700
6380
61C0
60C0
64C0
F780
ENDCHAR
STARTCHAR agrave
ENCODING 224
SWIDTH 556 0
DWIDTH 9 0
BBX 8 12 1 0
BITMAP
70
18
00
7C
46
46
06
7E
E6
C6
C6
7F
ENDCHAR
STARTCHAR aacute
ENCODING 225
SWIDTH 556 0
DWIDTH 9 0
BBX 8 12 1 0
BITMAP
1C
30
00
7C
46
46
06
7E
E6
C6
C6
7F
ENDCHAR
STARTCHAR acircumflex
ENCODING 226
SWIDTH 556 0
DWIDTH 9 0
BBX 8 12 1 0
BITMAP
3C
66
00
7C
46
46
06
7E
E6
C6
C6
7F
ENDCHAR
STARTCHAR atilde
ENCODING 227
SWIDTH 556 0
DWIDTH 9 0
BBX 8 12 1 0
BITMAP
3A
5C
00
7C
46
46
06
7E
E6
C6
C6
7F
ENDCHAR
STARTCHAR adieresis
ENCODING 228
SWIDTH 556 0
DWIDTH 9 0
BBX 8 11 1 0
BITMAP
6C
00
7C
46
46
06
7E
E6
C6
C6
7F
ENDCHAR
STARTCHAR aring
ENCODING 229
SWIDTH 556 0
DWIDTH 9 0
BBX 8 12 1 0
BITMAP
38
38
00
7C
46
46
06
7E
E6
C6
C6
7F
ENDCHAR
STARTCHAR ae
ENCODING 230
SWIDTH 858 0
DWIDTH 15 0
BBX 13 9 1 0
BITMAP
3CE0
4710
4618
0618
7FF8
E600
C600
C708
79F8
ENDCHAR
STARTCHAR ccedilla
ENCODING 231
SWIDTH 541 0
DWIDTH 9 0
BBX 8 12 0 -3
BITMAP
3F
61
C1
C0
C0
C0
C0
60
3F
08
04
1C
ENDCHAR
STARTCHAR egrave
ENCODING 232
SWIDTH 568 0
DWIDTH 10 0
BBX 8 12 1 0
BITMAP
38
0C
00
3C
62
C3
C3
FF
C0
C0
61
3F
ENDCHAR
STARTCHAR eacute
ENCODING 233
SWIDTH 568 0
DWIDTH 10 0
BBX 8 12 1 0
BITMAP
0E
18
00
3C
62
C3
C3
FF
C0
C0
61
3F
ENDCHAR
STARTCHAR ecircumflex
ENCODING 234
SWIDTH 568 0
DWIDTH 10 0
BBX 8 12 1 0
BITMAP
3C
66
00
3C
62
C3
C3
FF
C0
C0
61
3F
ENDCHAR
STARTCHAR edieresis
ENCODING 235
SWIDTH 568 0
DWIDTH 10 0
BBX 8 11 1 0
BITMAP
36
00
3C
62
C3
C3
FF
C0
C0
61
3F
ENDCHAR
STARTCHAR igrave
ENCODING 236
SWIDTH 325 0
DWIDTH 6 0
BBX 5 12 2 0
BITMAP
E0
30
00
70
30
30
30
30
30
30
30
78
ENDCHAR
STARTCHAR iacute
ENCODING 237
SWIDTH 325 0
DWIDTH 6 0
BBX 4 12 1 0
BITMAP
70
C0
00
E0
60
60
60
60
60
60
60
F0
ENDCHAR
STARTCHAR icircumflex
ENCODING 238
SWIDTH 325 0
DWIDTH 6 0
BBX 6 12 2 0
BITMAP
78
CC
00
70
30
30
30
30
30
30
30
78
ENDCHAR
STARTCHAR idieresis
ENCODING 239
SWIDTH 325 0
DWIDTH 6 0
BBX 5 11 2 0
BITMAP
D8
00
70
30
30
30
30
30
30
30
78
ENDCHAR
STARTCHAR eth
ENCODING 240
SWIDTH 652 0
DWIDTH 11 0
BBX 9 14 1 0
BITMAP
0600
FC00
3C00
2E00
4700
3F00
6380
C180
C180
C180
C180
C100
6300
3E00
ENDCHAR
STARTCHAR ntilde
ENCODING 241
SWIDTH 654 0
DWIDTH 11 0
BBX 10 12 1 0
BITMAP
1D00
2E00
0000
EF00
7180
6180
6180
6180
6180
6180
6180
F3C0
ENDCHAR
STARTCHAR ograve
ENCODING 242
SWIDTH 617 0
DWIDTH 10 0
BBX 9 12 1 0
BITMAP
3800
0C00
0000
3E00
6300
C180
C180
C180
C180
C180
6300
3E00
ENDCHAR
STARTCHAR oacute
ENCODING 243
SWIDTH 617 0
DWIDTH 10 0
BBX 9 12 1 0
BITMAP
0E00
1800
0000
3E00
6300
C180
C180
C180
C180
C180
6300
3E00
ENDCHAR
STARTCHAR ocircumflex
ENCODING 244
SWIDTH 617 0
DWIDTH 10 0
BBX 9 12 1 0
BITMAP
3C00
6600
0000
3E00
6300
C180
C180
C180
C180
C180
6300
3E00
ENDCHAR
STARTCHAR otilde
ENCODING 245
SWIDTH 617 0
DWIDTH 10 0
BBX 9 12 1 0
BITMAP
3A00
5C00
0000
3E00
6300
C180
C180
C180
C180
C180
6300
3E00
ENDCHAR
STARTCHAR odieresis
ENCODING 246
SWIDTH 617 0
DWIDTH 10 0
BBX 9 11 1 0
BITMAP
3600
0000
3E00
6300
C180
C180
C180
C180
C180
6300
3E00
ENDCHAR
STARTCHAR divide
ENCODING 247
SWIDTH 623 0
DWIDTH 11 0
BBX 9 9 1 0
BITMAP
0800
0000
0000
0000
FF80
0000
0000
0000
0800
ENDCHAR
STARTCHAR oslash
ENCODING 248
SWIDTH 617 0
DWIDTH 10 0
BBX 10 9 0 0
BITMAP
3EC0
6180
C1C0
C2C0
CCC0
F0C0
E0C0
6180
DF00
ENDCHAR
STARTCHAR ugrave
ENCODING 249
SWIDTH 654 0
DWIDTH 11 0
BBX 10 12 0 0
BITMAP
1C00
0600
0000
E380
6180
6180
6180
6180
6180
6180
6380
3DC0
ENDCHAR
STARTCHAR uacute
ENCODING 250
SWIDTH 654 0
DWIDTH 11 0
BBX 10 12 0 0
BITMAP
0700
0C00
0000
E380
6180
6180
6180
6180
6180
6180
6380
3DC0
ENDCHAR
STARTCHAR ucircumflex
ENCODING 251
SWIDTH 654 0
DWIDTH 11 0
BBX 10 12 0 0
BITMAP
1E00
3300
0000
E380
6180
6180
6180
6180
6180
6180
6380
3DC0
ENDCHAR
STARTCHAR udieresis
ENCODING 252
SWIDTH 654 0
DWIDTH 11 0
BBX 10 11 0 0
BITMAP
1B00
0000
E380
6180
6180
6180
6180
6180
6180
6380
3DC0
ENDCHAR
STARTCHAR yacute
ENCODING 253
SWIDTH 654 0
DWIDTH 11 0
BBX 11 15 0 -3
BITMAP
0700
0C00
0000
F8E0
7040
3080
1880
1900
1F00
0E00
0C00
0400
0800
1800
3000
ENDCHAR
STARTCHAR thorn
ENCODING 254
SWIDTH 652 0
DWIDTH 11 0
BBX 10 16 0 -3
BITMAP
E000
6000
6000
6000
6F00
7180
60C0
60C0
60C0
60C0
60C0
7180
6F00
6000
6000
F000
ENDCHAR
STARTCHAR ydieresis
ENCODING 255
SWIDTH 654 0
DWIDTH 11 0
BBX 11 14 0 -3
BITMAP
1B00
0000
F8E0
7040
3080
1880
1900
1F00
0E00
0C00
0400
0800
1800
3000
ENDCHAR
STARTCHAR Amacron
ENCODING 256
SWIDTH 795 0
DWIDTH 14 0
BBX 14 15 0 0
BITMAP
0F80
0000
0200
0300
0700
0580
0D80
09C0
08C0
10E0
1FE0
2070
2030
4038
E07C
ENDCHAR
STARTCHAR amacron
ENCODING 257
SWIDTH 556 0
DWIDTH 9 0
BBX 8 11 1 0
BITMAP
3E
00
7C
46
46
06
7E
E6
C6
C6
7F
ENDCHAR
STARTCHAR Abreve
ENCODING 258
SWIDTH 795 0
DWIDTH 14 0
BBX 14 16 0 0
BITMAP
0840
0780
0000
0200
0300
0700
0580
0D80
09C0
08C0
10E0
1FE0
2070
2030
4038
E07C
ENDCHAR
STARTCHAR abreve
ENCODING 259
SWIDTH 556 0
DWIDTH 9 0
BBX 8 12 1 0
BITMAP
42
3C
00
7C
46
46
06
7E
E6
C6
C6
7F
ENDCHAR
STARTCHAR Aogonek
ENCODING 260
SWIDTH 795 0
DWIDTH 14 0
BBX 14 16 0 -3
BITMAP
0200
0300
0700
0580
0D80
09C0
08C0
10E0
1FE0
2070
2030
4038
E07C
0000
0180
01C0
ENDCHAR
STARTCHAR aogonek
ENCODING 261
SWIDTH 556 0
DWIDTH 9 0
BBX 8 12 1 -3
BITMAP
7C
46
46
06
7E
E6
C6
C6
7F
00
18
1C
ENDCHAR
STARTCHAR Cacute
ENCODING 262
SWIDTH 711 0
DWIDTH 12 0
BBX 11 16 0 0
BITMAP
0380
0600
0000
0FE0
3060
6020
6000
C000
C000
C000
C000
C000
6000
6000
3820
0FC0
ENDCHAR
STARTCHAR cacute
ENCODING 263
SWIDTH 541 0
DWIDTH 9 0
BBX 8 12 0 0
BITMAP
0E
18
00
3F
61
C1
C0
C0
C0
C0
60
3F
ENDCHAR
STARTCHAR Ccircumflex
ENCODING 264
SWIDTH 711 0
DWIDTH 12 0
BBX 11 16 0 0
BITMAP
0F00
1980
0000
0FE0
3060
6020
6000
C000
C000
C000
C000
C000
6000
6000
3820
0FC0
ENDCHAR
STARTCHAR ccircumflex
ENCODING 265
SWIDTH 541 0
DWIDTH 9 0
BBX 8 12 0 0
BITMAP
3C
66
00
3F
61
C1
C0
C0
C0
C0
60
3F
ENDCHAR
STARTCHAR Cdotaccent
ENCODING 266
SWIDTH 711 0
DWIDTH 12 0
BBX 11 16 0 0
BITMAP
0600
0600
0000
0FE0
3060
6020
6000
C000
C000
C000
C000
C000
6000
6000
3820
0FC0
ENDCHAR
STARTCHAR cdotaccent
ENCODING 267
SWIDTH 541 0
DWIDTH 9 0
BBX 8 12 0 0
BITMAP
18
18
00
3F
61
C1
C0
C0
C0
C0
60
3F
ENDCHAR
STARTCHAR Ccaron
ENCODING 268
SWIDTH 711 0
DWIDTH 12 0
BBX 11 16 0 0
BITMAP
1980
0F00
0000
0FE0
3060
6020
6000
C000
C000
C000
C000
C000
6000
6000
3820
0FC0
ENDCHAR
STARTCHAR ccaron
ENCODING 269
SWIDTH 541 0
DWIDTH 9 0
BBX 8 12 0 0
BITMAP
66
3C
00
3F
61
C1
C0
C0
C0
C0
60
3F
ENDCHAR
STARTCHAR Dcaron
ENCODING 270
SWIDTH 794 0
DWIDTH 13 0
BBX 12 16 1 0
BITMAP
1980
0F00
0000
FF80
60C0
6060
6030
6030
6030
6030
6030
6030
6020
6060
60C0
FF80
ENDCHAR
STARTCHAR dcaron
ENCODING 271
SWIDTH 884 0
DWIDTH 14 0
BBX 13 13 1 0
BITMAP
03B8
01B8
0188
0188
3DB0
6380
C180
C180
C180
C180
C180
6380
3DC0
ENDCHAR
STARTCHAR Dcroat
ENCODING 272
SWIDTH 794 0
DWIDTH 13 0
BBX 13 13 0 0
BITMAP
FFC0
3060
3030
3018
3018
3018
FE18
3018
3018
3010
3030
3060
FFC0
ENDCHAR
STARTCHAR dcroat
ENCODING 273
SWIDTH 652 0
DWIDTH 11 0
BBX 10 13 1 0
BITMAP
0380
0180
0780
0180
3D80
6380
C180
C180
C180
C180
C180
6380
3DC0
ENDCHAR
STARTCHAR Emacron
ENCODING 274
SWIDTH 601 0
DWIDTH 10 0
BBX 9 15 1 0
BITMAP
7C00
0000
FF00
6100
6000
6000
6000
6200
7E00
6200
6000
6000
6000
6080
FF80
ENDCHAR
STARTCHAR emacron
ENCODING 275
SWIDTH 568 0
DWIDTH 10 0
BBX 8 11 1 0
BITMAP
7C
00
3C
62
C3
C3
FF
C0
C0
61
3F
ENDCHAR
STARTCHAR Ebreve
ENCODING 276
SWIDTH 601 0
DWIDTH 10 0
BBX 9 16 1 0
BITMAP
4200
3C00
0000
FF00
6100
6000
6000
6000
6200
7E00
6200
6000
6000
6000
6080
FF80
ENDCHAR
STARTCHAR ebreve
ENCODING 277
SWIDTH 568 0
DWIDTH 10 0
BBX 8 12 1 0
BITMAP
42
3C
00
3C
62
C3
C3
FF
C0
C0
61
3F
ENDCHAR
STARTCHAR Edotaccent
ENCODING 278
SWIDTH 601 0
DWIDTH 10 0
BBX 9 16 1 0
BITMAP
1800
1800
0000
FF00
6100
6000
6000
6000
6200
7E00
6200
6000
6000
6000
6080
FF80
ENDCHAR
STARTCHAR edotaccent
ENCODING 279
SWIDTH 568 0
DWIDTH 10 0
BBX 8 12 1 0
BITMAP
18
18
00
3C
62
C3
C3
FF
C0
C0
61
3F
ENDCHAR
STARTCHAR Eogonek
ENCODING 280
SWIDTH 601 0
DWIDTH 10 0
BBX 9 16 1 -3
BITMAP
FF00
6100
6000
6000
6000
6200
7E00
6200
6000
6000
6000
6080
FF80
0000
1800
1C00
ENDCHAR
STARTCHAR eogonek
ENCODING 281
SWIDTH 568 0
DWIDTH 10 0
BBX 8 12 1 -3
BITMAP
3C
62
C3
C3
FF
C0
C0
61
3F
00
18
1C
ENDCHAR
STARTCHAR Ecaron
ENCODING 282
SWIDTH 601 0
DWIDTH 10 0
BBX 9 16 1 0
BITMAP
6600
3C00
0000
FF00
6100
6000
6000
6000
6200
7E00
6200
6000
6000
6000
6080
FF80
ENDCHAR
STARTCHAR ecaron
ENCODING 283
SWIDTH 568 0
DWIDTH 10 0
BBX 8 12 1 0
BITMAP
66
3C
00
3C
62
C3
C3
FF
C0
C0
61
3F
ENDCHAR
STARTCHAR Gcircumflex
ENCODING 284
SWIDTH 753 0
DWIDTH 13 0
BBX 12 16 1 0
BITMAP
0F00
1980
0000
0FE0
3860
6020
6000
C000
C000
C000
C0F0
C060
6060
6060
3860
0FE0
ENDCHAR
STARTCHAR gcircumflex
ENCODING 285
SWIDTH 599 0
DWIDTH 10 0
BBX 10 15 0 -3
BITMAP
1E00
3300
0000
1FC0
63C0
6300
6300
6300
3E00
2000
6000
3F80
C180
C380
7E00
ENDCHAR
STARTCHAR Gbreve
ENCODING 286
SWIDTH 753 0
DWIDTH 13 0
BBX 12 16 1 0
BITMAP
1080
0F00
0000
0FE0
3860
6020
6000
C000
C000
C000
C0F0
C060
6060
6060
3860
0FE0
ENDCHAR
STARTCHAR gbreve
ENCODING 287
SWIDTH 599 0
DWIDTH 10 0
BBX 10 15 0 -3
BITMAP
2100
1E00
0000
1FC0
63C0
6300
6300
6300
3E00
2000
6000
3F80
C180
C380
7E00
ENDCHAR
STARTCHAR Gdotaccent
ENCODING 288
SWIDTH 753 0
DWIDTH 13 0
BBX 12 16 1 0
BITMAP
0600
0600
0000
0FE0
3860
6020
6000
C000
C000
C000
C0F0
C060
6060
6060
3860
0FE0
ENDCHAR
STARTCHAR gdotaccent
ENCODING 289
SWIDTH 599 0
DWIDTH 10 0
BBX 10 15 0 -3
BITMAP
0C00
0C00
0000
1FC0
63C0
6300
6300
6300
3E00
2000
6000
3F80
C180
C380
7E00
ENDCHAR
STARTCHAR Gcommaaccent
ENCODING 290
SWIDTH 753 0
DWIDTH 13 0
BBX 12 20 1 -7
BITMAP
0FE0
3860
6020
6000
C000
C000
C000
C0F0
C060
6060
6060
3860
0FE0
0000
0700
0700
0700
0100
0100
0600
ENDCHAR
STARTCHAR gcommaaccent
ENCODING 291
SWIDTH 599 0
DWIDTH 10 0
BBX 10 18 0 -3
BITMAP
0600
0800
0800
0E00
0E00
0000
1FC0
63C0
6300
6300
6300
3E00
2000
6000
3F80
C180
C380
7E00
ENDCHAR
STARTCHAR Hcircumflex
ENCODING 292
SWIDTH 798 0
DWIDTH 14 0
BBX 12 16 1 0
BITMAP
0F00
1980
0000
F0F0
6060
6060
6060
6060
6060
7FE0
6060
6060
6060
6060
6060
F0F0
ENDCHAR
STARTCHAR hcircumflex
ENCODING 293
SWIDTH 654 0
DWIDTH 11 0
BBX 10 16 1 0
BITMAP
7800
CC00
0000
E000
6000
6000
6000
6F00
7180
6180
6180
6180
6180
6180
6180
F3C0
ENDCHAR
STARTCHAR Hbar
ENCODING 294
SWIDTH 798 0
DWIDTH 14 0
BBX 12 13 1 0
BITMAP
F0F0
6060
6060
FFF0
6060
6060
7FE0
6060
6060
6060
6060
6060
F0F0
ENDCHAR
STARTCHAR hbar
ENCODING 295
SWIDTH 654 0
DWIDTH 11 0
BBX 10 13 1 0
BITMAP
E000
6000
7800
6000
6F00
7180
6180
6180
6180
6180
6180
6180
F3C0
ENDCHAR
STARTCHAR Itilde
ENCODING 296
SWIDTH 349 0
DWIDTH 6 0
BBX 6 16 0 0
BITMAP
74
B8
00
78
30
30
30
30
30
30
30
30
30
30
30
78
ENDCHAR
STARTCHAR itilde
ENCODING 297
SWIDTH 325 0
DWIDTH 6 0
BBX 6 12 0 0
BITMAP
74
B8
00
70
30
30
30
30
30
30
30
78
ENDCHAR
STARTCHAR Imacron
ENCODING 298
SWIDTH 349 0
DWIDTH 6 0
BBX 5 15 1 0
BITMAP
F8
00
F0
60
60
60
60
60
60
60
60
60
60
60
F0
ENDCHAR
STARTCHAR imacron
ENCODING 299
SWIDTH 325 0
DWIDTH 6 0
BBX 5 11 0 0
BITMAP
F8
00
70
30
30
30
30
30
30
30
78
ENDCHAR
STARTCHAR Ibreve
ENCODING 300
SWIDTH 349 0
DWIDTH 6 0
BBX 6 16 0 0
BITMAP
84
78
00
78
30
30
30
30
30
30
30
30
30
30
30
78
ENDCHAR
STARTCHAR ibreve
ENCODING 301
SWIDTH 325 0
DWIDTH 6 0
BBX 6 12 0 0
BITMAP
84
78
00
70
30
30
30
30
30
30
30
78
ENDCHAR
STARTCHAR Iogonek
ENCODING 302
SWIDTH 349 0
DWIDTH 6 0
BBX 4 16 1 -3
BITMAP
F0
60
60
60
60
60
60
60
60
60
60
60
F0
00
60
70
ENDCHAR
STARTCHAR iogonek
ENCODING 303
SWIDTH 325 0
DWIDTH 6 0
BBX 4 16 1 -3
BITMAP
60
60
00
00
E0
60
60
60
60
60
60
60
F0
00
60
70
ENDCHAR
STARTCHAR Idotaccent
ENCODING 304
SWIDTH 349 0
DWIDTH 6 0
BBX 4 16 1 0
BITMAP
60
60
00
F0
60
60
60
60
60
60
60
60
60
60
60
F0
ENDCHAR
STARTCHAR dotlessi
ENCODING 305
SWIDTH 325 0
DWIDTH 6 0
BBX 4 9 1 0
BITMAP
E0
60
60
60
60
60
60
60
F0
ENDCHAR
STARTCHAR IJ
ENCODING 306
SWIDTH 784 0
DWIDTH 14 0
BBX 12 16 1 -3
BITMAP
F0F0
6060
6060
6060
6060
6060
6060
6060
6060
6060
6060
6060
F060
0460
0440
0780
ENDCHAR
STARTCHAR ij
ENCODING 307
SWIDTH 664 0
DWIDTH 12 0
BBX 11 16 1 -3
BITMAP
6060
6060
0000
0000
E1E0
6060
6060
6060
6060
6060
6060
6060
F060
0460
0460
07C0
ENDCHAR
STARTCHAR Jcircumflex
ENCODING 308
SWIDTH 452 0
DWIDTH 8 0
BBX 8 19 0 -3
BITMAP
1E
33
00
1E
0C
0C
0C
0C
0C
0C
0C
0C
0C
0C
0C
0C
8C
88
F0
ENDCHAR
STARTCHAR jcircumflex
ENCODING 309
SWIDTH 355 0
DWIDTH 6 0
BBX 7 15 0 -3
BITMAP
3C
66
00
3C
0C
0C
0C
0C
0C
0C
0C
0C
8C
8C
F8
ENDCHAR
STARTCHAR Kcommaaccent
ENCODING 310
SWIDTH 747 0
DWIDTH 13 0
BBX 12 20 1 -7
BITMAP
F1E0
60C0
6100
6200
6400
7800
7800
6C00
6600
6300
6380
61C0
F3F0
0000
0E00
0E00
0E00
0200
0200
0C00
ENDCHAR
STARTCHAR kcommaaccent
ENCODING 311
SWIDTH 654 0
DWIDTH 11 0
BBX 11 20 0 -7
BITMAP
E000
6000
6000
6000
63C0
6180
6600
6C00
7C00
6E00
6700
6380
F1E0
0000
0E00
0E00
0E00
0200
0200
0C00
ENDCHAR
STARTCHAR kgreenlandic
ENCODING 312
SWIDTH 654 0
DWIDTH 11 0
BBX 11 9 0 0
BITMAP
63C0
6180
6600
6C00
7C00
6E00
6700
6380
F1E0
ENDCHAR
STARTCHAR Lacute
ENCODING 313
SWIDTH 584 0
DWIDTH 10 0
BBX 9 16 1 0
BITMAP
1C00
3000
0000
F000
6000
6000
6000
6000
6000
6000
6000
6000
6000
6080
6080
FF80
ENDCHAR
STARTCHAR lacute
ENCODING 314
SWIDTH 325 0
DWIDTH 6 0
BBX 5 16 1 0
BITMAP
38
60
00
E0
60
60
60
60
60
60
60
60
60
60
60
F0
ENDCHAR
STARTCHAR Lcommaaccent
ENCODING 315
SWIDTH 584 0
DWIDTH 10 0
BBX 9 20 1 -7
BITMAP
F000
6000
6000
6000
6000
6000
6000
6000
6000
6000
6080
6080
FF80
0000
1C00
1C00
1C00
0400
0400
1800
ENDCHAR
STARTCHAR lcommaaccent
ENCODING 316
SWIDTH 325 0
DWIDTH 6 0
BBX 4 20 1 -7
BITMAP
E0
60
60
60
60
60
60
60
60
60
60
60
F0
00
70
70
70
10
10
60
ENDCHAR
STARTCHAR Lcaron
ENCODING 317
SWIDTH 820 0
DWIDTH 14 0
BBX 13 13 1 0
BITMAP
F038
6038
6008
6008
6030
6000
6000
6000
6000
6000
6080
6080
FF80
ENDCHAR
STARTCHAR lcaron
ENCODING 318
SWIDTH 574 0
DWIDTH 10 0
BBX 9 13 1 0
BITMAP
E380
6380
6080
6080
6300
6000
6000
6000
6000
6000
6000
6000
F000
ENDCHAR
STARTCHAR Ldot
ENCODING 319
SWIDTH 1178 0
DWIDTH 21 0
BBX 15 13 1 0
BITMAP
F000
6000
6000
6000
6000
6000
6000
6006
6006
6000
6080
6080
FF80
ENDCHAR
STARTCHAR ldot
ENCODING 320
SWIDTH 932 0
DWIDTH 17 0
BBX 11 13 1 0
BITMAP
E000
6000
6000
6000
6000
6000
6000
6060
6060
6000
6000
6000
F000
ENDCHAR
STARTCHAR Lslash
ENCODING 321
SWIDTH 584 0
DWIDTH 10 0
BBX 10 13 0 0
BITMAP
F800
3000
3000
3000
3400
3800
7000
B000
3000
3000
3040
3040
FFC0
ENDCHAR
STARTCHAR lslash
ENCODING 322
SWIDTH 325 0
DWIDTH 6 0
BBX 6 13 0 0
BITMAP
F0
30
30
30
30
3C
30
F0
30
30
30
30
FC
ENDCHAR
STARTCHAR Nacute
ENCODING 323
SWIDTH 788 0
DWIDTH 13 0
BBX 12 16 1 0
BITMAP
0700
0C00
0000
E070
7020
7020
5820
5C20
4E20
4620
4320
43A0
41A0
40E0
4060
E060
ENDCHAR
STARTCHAR nacute
ENCODING 324
SWIDTH 654 0
DWIDTH 11 0
BBX 10 12 1 0
BITMAP
0E00
1800
0000
EF00
7180
6180
6180
6180
6180
6180
6180
F3C0
ENDCHAR
STARTCHAR Ncommaaccent
ENCODING 325
SWIDTH 788 0
DWIDTH 13 0
BBX 12 20 1 -7
BITMAP
E070
7020
7020
5820
5C20
4E20
4620
4320
43A0
41A0
40E0
4060
E060
0000
0700
0700
0700
0100
0100
0600
ENDCHAR
STARTCHAR ncommaaccent
ENCODING 326
SWIDTH 654 0
DWIDTH 11 0
BBX 10 16 1 -7
BITMAP
EF00
7180
6180
6180
6180
6180
6180
6180
F3C0
0000
0E00
0E00
0E00
0200
0200
0C00
ENDCHAR
STARTCHAR Ncaron
ENCODING 327
SWIDTH 788 0
DWIDTH 13 0
BBX 12 16 1 0
BITMAP
3300
1E00
0000
E070
7020
7020
5820
5C20
4E20
4620
4320
43A0
41A0
40E0
4060
E060
ENDCHAR
STARTCHAR ncaron
ENCODING 328
SWIDTH 654 0
DWIDTH 11 0
BBX 10 12 1 0
BITMAP
3300
1E00
0000
EF00
7180
6180
6180
6180
6180
6180
6180
F3C0
ENDCHAR
STARTCHAR napostrophe
ENCODING 329
SWIDTH 906 0
DWIDTH 15 0
BBX 14 13 1 0
BITMAP
E000
E000
2000
2000
CEF0
0718
0618
0618
0618
0618
0618
0618
0F3C
ENDCHAR
STARTCHAR Eng
ENCODING 330
SWIDTH 788 0
DWIDTH 13 0
BBX 12 16 1 -3
BITMAP
E070
7020
7020
5820
5C20
4E20
4620
4320
43A0
41E0
40E0
4060
E060
0460
0460
07C0
ENDCHAR
STARTCHAR eng
ENCODING 331
SWIDTH 654 0
DWIDTH 11 0
BBX 9 12 1 -3
BITMAP
EF00
7180
6180
6180
6180
6180
6180
6180
F180
1180
1180
1F00
ENDCHAR
STARTCHAR Omacron
ENCODING 332
SWIDTH 810 0
DWIDTH 14 0
BBX 12 15 1 0
BITMAP
0F80
0000
1F80
30C0
6060
6060
C030
C030
C030
C030
C030
6060
6060
30C0
1F80
ENDCHAR
STARTCHAR omacron
ENCODING 333
SWIDTH 617 0
DWIDTH 10 0
BBX 9 11 1 0
BITMAP
3E00
0000
3E00
6300
C180
C180
C180
C180
C180
6300
3E00
ENDCHAR
STARTCHAR Obreve
ENCODING 334
SWIDTH 810 0
DWIDTH 14 0
BBX 12 16 1 0
BITMAP
1080
0F00
0000
1F80
30C0
6060
6060
C030
C030
C030
C030
C030
6060
6060
30C0
1F80
ENDCHAR
STARTCHAR obreve
ENCODING 335
SWIDTH 617 0
DWIDTH 10 0
BBX 9 12 1 0
BITMAP
2100
1E00
0000
3E00
6300
C180
C180
C180
C180
C180
6300
3E00
ENDCHAR
STARTCHAR Ohungarumlaut
ENCODING 336
SWIDTH 810 0
DWIDTH 14 0
BBX 12 16 1 0
BITMAP
06C0
0B00
0000
1F80
30C0
6060
6060
C030
C030
C030
C030
C030
6060
6060
30C0
1F80
ENDCHAR
STARTCHAR ohungarumlaut
ENCODING 337
SWIDTH 617 0
DWIDTH 10 0
BBX 9 12 1 0
BITMAP
1B00
2C00
0000
3E00
6300
C180
C180
C180
C180
C180
6300
3E00
ENDCHAR
STARTCHAR OE
ENCODING 338
SWIDTH 1044 0
DWIDTH 18 0
BBX 17 13 0 0
BITMAP
0F7F80
30E080
606080
606000
C06000
C06100
C07F00
C06100
C06000
606000
606080
30E080
0F7F80
ENDCHAR
STARTCHAR oe
ENCODING 339
SWIDTH 943 0
DWIDTH 16 0
BBX 15 9 0 0
BITMAP
3E78
67C4
C386
C306
C3FE
C300
C300
67C2
3E7E
ENDCHAR
STARTCHAR Racute
ENCODING 340
SWIDTH 720 0
DWIDTH 12 0
BBX 11 16 1 0
BITMAP
0700
0C00
0000
FF00
6380
6180
6180
6180
6300
7F00
6600
6700
6300
6380
6180
F0E0
ENDCHAR
STARTCHAR racute
ENCODING 341
SWIDTH 462 0
DWIDTH 8 0
BBX 6 12 1 0
BITMAP
1C
30
00
EC
74
64
60
60
60
60
60
F8
ENDCHAR
STARTCHAR Rcommaaccent
ENCODING 342
SWIDTH 720 0
DWIDTH 12 0
BBX 11 20 1 -7
BITMAP
FF00
6380
6180
6180
6180
6300
7F00
6600
6700
6300
6380
6180
F0E0
0000
0E00
0E00
0E00
0200
0200
0C00
ENDCHAR
STARTCHAR rcommaaccent
ENCODING 343
SWIDTH 462 0
DWIDTH 8 0
BBX 6 16 1 -7
BITMAP
EC
74
64
60
60
60
60
60
F8
00
70
70
70
10
10
60
ENDCHAR
STARTCHAR Rcaron
ENCODING 344
SWIDTH 720 0
DWIDTH 12 0
BBX 11 16 1 0
BITMAP
3300
1E00
0000
FF00
6380
6180
6180
6180
6300
7F00
6600
6700
6300
6380
6180
F0E0
ENDCHAR
STARTCHAR rcaron
ENCODING 345
SWIDTH 462 0
DWIDTH 8 0
BBX 6 12 1 0
BITMAP
CC
78
00
EC
74
64
60
60
60
60
60
F8
ENDCHAR
STARTCHAR Sacute
ENCODING 346
SWIDTH 556 0
DWIDTH 9 0
BBX 8 16 1 0
BITMAP
1C
30
00
3E
62
C2
C0
E0
78
3C
0E
03
03
83
C6
FC
ENDCHAR
STARTCHAR sacute
ENCODING 347
SWIDTH 525 0
DWIDTH 9 0
BBX 7 12 1 0
BITMAP
1C
30
00
7C
C4
C4
F0
7C
1E
86
86
FC
ENDCHAR
STARTCHAR Scircumflex
ENCODING 348
SWIDTH 556 0
DWIDTH 9 0
BBX 8 16 1 0
BITMAP
3C
66
00
3E
62
C2
C0
E0
78
3C
0E
03
03
83
C6
FC
ENDCHAR
STARTCHAR scircumflex
ENCODING 349
SWIDTH 525 0
DWIDTH 9 0
BBX 7 12 1 0
BITMAP
78
CC
00
7C
C4
C4
F0
7C
1E
86
86
FC
ENDCHAR
STARTCHAR Scedilla
ENCODING 350
SWIDTH 556 0
DWIDTH 9 0
BBX 8 16 1 -3
BITMAP
3E
62
C2
C0
E0
78
3C
0E
03
03
83
C6
FC
18
04
1C
ENDCHAR
STARTCHAR scedilla
ENCODING 351
SWIDTH 525 0
DWIDTH 9 0
BBX 7 12 1 -3
BITMAP
7C
C4
C4
F0
7C
1E
86
86
FC
30
08
38
ENDCHAR
STARTCHAR Scaron
ENCODING 352
SWIDTH 556 0
DWIDTH 9 0
BBX 8 16 1 0
BITMAP
66
3C
00
3E
62
C2
C0
E0
78
3C
0E
03
03
83
C6
FC
ENDCHAR
STARTCHAR scaron
ENCODING 353
SWIDTH 525 0
DWIDTH 9 0
BBX 7 12 1 0
BITMAP
CC
78
00
7C
C4
C4
F0
7C
1E
86
86
FC
ENDCHAR
STARTCHAR Tcommaaccent
ENCODING 354
SWIDTH 714 0
DWIDTH 12 0
BBX 10 16 1 -3
BITMAP
FFC0
8C40
0C00
0C00
0C00
0C00
0C00
0C00
0C00
0C00
0C00
0C00
3F00
0C00
0200
0E00
ENDCHAR
STARTCHAR tcommaaccent
ENCODING 355
SWIDTH 389 0
DWIDTH 7 0
BBX 5 15 1 -3
BITMAP
60
60
60
F8
60
60
60
60
60
60
60
38
60
10
70
ENDCHAR
STARTCHAR Tcaron
ENCODING 356
SWIDTH 714 0
DWIDTH 12 0
BBX 10 16 1 0
BITMAP
3300
1E00
0000
FFC0
8C40
0C00
0C00
0C00
0C00
0C00
0C00
0C00
0C00
0C00
0C00
3F00
ENDCHAR
STARTCHAR tcaron
ENCODING 357
SWIDTH 635 0
DWIDTH 11 0
BBX 10 13 1 0
BITMAP
01C0
61C0
6040
6040
F980
6000
6000
6000
6000
6000
6000
6000
3800
ENDCHAR
STARTCHAR Tbar
ENCODING 358
SWIDTH 714 0
DWIDTH 12 0
BBX 10 13 1 0
BITMAP
FFC0
8C40
0C00
0C00
0C00
0C00
1E00
0C00
0C00
0C00
0C00
0C00
3F00
ENDCHAR
STARTCHAR tbar
ENCODING 359
SWIDTH 389 0
DWIDTH 7 0
BBX 5 12 1 0
BITMAP
60
60
60
F8
60
60
60
78
60
60
60
38
ENDCHAR
STARTCHAR Utilde
ENCODING 360
SWIDTH 747 0
DWIDTH 13 0
BBX 12 16 0 0
BITMAP
0E80
1700
0000
F070
6020
6020
6020
6020
6020
6020
6020
6020
6020
6020
3040
1F80
ENDCHAR
STARTCHAR utilde
ENCODING 361
SWIDTH 654 0
DWIDTH 11 0
BBX 10 12 0 0
BITMAP
1D00
2E00
0000
E380
6180
6180
6180
6180
6180
6180
6380
3DC0
ENDCHAR
STARTCHAR Umacron
ENCODING 362
SWIDTH 747 0
DWIDTH 13 0
BBX 12 15 0 0
BITMAP
1F00
0000
F070
6020
6020
6020
6020
6020
6020
6020
6020
6020
6020
3040
1F80
ENDCHAR
STARTCHAR umacron
ENCODING 363
SWIDTH 654 0
DWIDTH 11 0
BBX 10 11 0 0
BITMAP
3E00
0000
E380
6180
6180
6180
6180
6180
6180
6380
3DC0
ENDCHAR
STARTCHAR Ubreve
ENCODING 364
SWIDTH 747 0
DWIDTH 13 0
BBX 12 16 0 0
BITMAP
2100
1E00
0000
F070
6020
6020
6020
6020
6020
6020
6020
6020
6020
6020
3040
1F80
ENDCHAR
STARTCHAR ubreve
ENCODING 365
SWIDTH 654 0
DWIDTH 11 0
BBX 10 12 0 0
BITMAP
2100
1E00
0000
E380
6180
6180
6180
6180
6180
6180
6380
3DC0
ENDCHAR
STARTCHAR Uring
ENCODING 366
SWIDTH 747 0
DWIDTH 13 0
BBX 12 16 0 0
BITMAP
0E00
0E00
0000
F070
6020
6020
6020
6020
6020
6020
6020
6020
6020
6020
3040
1F80
ENDCHAR
STARTCHAR uring
ENCODING 367
SWIDTH 654 0
DWIDTH 11 0
BBX 10 12 0 0
BITMAP
1C00
1C00
0000
E380
6180
6180
6180
6180
6180
6180
6380
3DC0
ENDCHAR
STARTCHAR Uhungarumlaut
ENCODING 368
SWIDTH 747 0
DWIDTH 13 0
BBX 12 16 0 0
BITMAP
0D80
1600
0000
F070
6020
6020
6020
6020
6020
6020
6020
6020
6020
6020
3040
1F80
ENDCHAR
STARTCHAR uhungarumlaut
ENCODING 369
SWIDTH 654 0
DWIDTH 11 0
BBX 10 12 0 0
BITMAP
1B00
2C00
0000
E380
6180
6180
6180
6180
6180
6180
6380
3DC0
ENDCHAR
STARTCHAR Uogonek
ENCODING 370
SWIDTH 747 0
DWIDTH 13 0
BBX 12 16 0 -3
BITMAP
F070
6020
6020
6020
6020
6020
6020
6020
6020
6020
6020
3040
1F80
0000
0C00
0E00
ENDCHAR
STARTCHAR uogonek
ENCODING 371
SWIDTH 654 0
DWIDTH 11 0
BBX 10 12 0 -3
BITMAP
E380
6180
6180
6180
6180
6180
6180
6380
3DC0
0000
0C00
0E00
ENDCHAR
STARTCHAR Wcircumflex
ENCODING 372
SWIDTH 955 0
DWIDTH 16 0
BBX 16 16 0 0
BITMAP
0780
0CC0
0000
F887
7082
31C4
31C4
31C4
3AC4
1A68
1A68
1C68
1C30
0C30
0C30
0830
ENDCHAR
STARTCHAR wcircumflex
ENCODING 373
SWIDTH 880 0
DWIDTH 15 0
BBX 15 12 0 0
BITMAP
0780
0CC0
0000
F98E
7184
31C8
32C8
3AD8
1C70
1C70
0C60
0820
ENDCHAR
STARTCHAR Ycircumflex
ENCODING 374
SWIDTH 717 0
DWIDTH 12 0
BBX 12 16 0 0
BITMAP
0F00
1980
0000
FCF0
7020
3840
18C0
0C80
0D00
0700
0600
0600
0600
0600
0600
0F00
ENDCHAR
STARTCHAR ycircumflex
ENCODING 375
SWIDTH 654 0
DWIDTH 11 0
BBX 11 15 0 -3
BITMAP
1E00
3300
0000
F8E0
7040
3080
1880
1900
1F00
0E00
0C00
0400
0800
1800
3000
ENDCHAR
STARTCHAR Ydieresis
ENCODING 376
SWIDTH 717 0
DWIDTH 12 0
BBX 12 15 0 0
BITMAP
0D80
0000
FCF0
7020
3840
18C0
0C80
0D00
0700
0600
0600
0600
0600
0600
0F00
ENDCHAR
STARTCHAR Zacute
ENCODING 377
SWIDTH 639 0
DWIDTH 11 0
BBX 9 16 1 0
BITMAP
0E00
1800
0000
FF80
C300
8300
0600
0E00
0C00
1C00
1800
3800
3000
6080
6080
FF80
ENDCHAR
STARTCHAR zacute
ENCODING 378
SWIDTH 584 0
DWIDTH 10 0
BBX 8 12 1 0
BITMAP
0E
18
00
FF
86
0E
1C
18
30
70
61
FF
ENDCHAR
STARTCHAR Zdotaccent
ENCODING 379
SWIDTH 639 0
DWIDTH 11 0
BBX 9 16 1 0
BITMAP
0C00
0C00
0000
FF80
C300
8300
0600
0E00
0C00
1C00
1800
3800
3000
6080
6080
FF80
ENDCHAR
STARTCHAR zdotaccent
ENCODING 380
SWIDTH 584 0
DWIDTH 10 0
BBX 8 12 1 0
BITMAP
18
18
00
FF
86
0E
1C
18
30
70
61
FF
ENDCHAR
STARTCHAR Zcaron
ENCODING 381
SWIDTH 639 0
DWIDTH 11 0
BBX 9 16 1 0
BITMAP
3300
1E00
0000
FF80
C300
8300
0600
0E00
0C00
1C00
1800
3800
3000
6080
6080
FF80
ENDCHAR
STARTCHAR zcaron
ENCODING 382
SWIDTH 584 0
DWIDTH 10 0
BBX 8 12 1 0
BITMAP
66
3C
00
FF
86
0E
1C
18
30
70
61
FF
ENDCHAR
STARTCHAR uni0186
ENCODING 390
SWIDTH 711 0
DWIDTH 12 0
BBX 11 13 0 0
BITMAP
7E00
8380
00C0
00C0
0060
0060
0060
0060
0060
00C0
80C0
C180
FE00
ENDCHAR
STARTCHAR uni0189
ENCODING 393
SWIDTH 794 0
DWIDTH 13 0
BBX 13 13 0 0
BITMAP
FFC0
3060
3030
3018
3018
3018
FE18
3018
3018
3010
3030
3060
FFC0
ENDCHAR
STARTCHAR uni018E
ENCODING 398
SWIDTH 601 0
DWIDTH 10 0
BBX 9 13 1 0
BITMAP
FF80
8300
0300
0300
0300
2300
3F00
2300
0300
0300
0300
4300
7F80
ENDCHAR
STARTCHAR florin
ENCODING 402
SWIDTH 623 0
DWIDTH 11 0
BBX 9 16 1 -3
BITMAP
0780
0C80
1880
1800
3800
3800
FC00
3000
3000
3000
6000
6000
6000
6000
6000
C000
ENDCHAR
STARTCHAR uni0197
ENCODING 407
SWIDTH 349 0
DWIDTH 6 0
BBX 4 13 1 0
BITMAP
F0
60
60
60
60
60
F0
60
60
60
60
60
F0
ENDCHAR
STARTCHAR uni019A
ENCODING 410
SWIDTH 325 0
DWIDTH 6 0
BBX 4 13 1 0
BITMAP
E0
60
60
60
60
60
F0
60
60
60
60
60
F0
ENDCHAR
STARTCHAR uni019D
ENCODING 413
SWIDTH 788 0
DWIDTH 13 0
BBX 15 16 -2 -3
BITMAP
1C0E
0E04
0E04
0B04
0B84
09C4
08C4
0864
0874
0C34
0C1C
0C0C
0C0C
8C00
8C00
F800
ENDCHAR
STARTCHAR uni019F
ENCODING 415
SWIDTH 810 0
DWIDTH 14 0
BBX 12 13 1 0
BITMAP
1F80
30C0
6060
6060
C030
C030
FFF0
C030
C030
6060
6060
30C0
1F80
ENDCHAR
STARTCHAR Ohorn
ENCODING 416
SWIDTH 810 0
DWIDTH 14 0
BBX 14 13 1 0
BITMAP
1F9C
30DC
6064
6064
C038
C030
C030
C030
C030
6060
6060
30C0
1F80
ENDCHAR
STARTCHAR ohorn
ENCODING 417
SWIDTH 617 0
DWIDTH 10 0
BBX 11 9 1 0
BITMAP
3EE0
63E0
C1A0
C1A0
C1C0
C180
C180
6300
3E00
ENDCHAR
STARTCHAR uni01A7
ENCODING 423
SWIDTH 556 0
DWIDTH 9 0
BBX 8 13 1 0
BITMAP
7C
46
43
03
07
1E
3C
70
C0
C0
C1
63
3F
ENDCHAR
STARTCHAR uni01A8
ENCODING 424
SWIDTH 525 0
DWIDTH 9 0
BBX 7 9 1 0
BITMAP
7C
46
46
1E
7C
F0
C2
C2
7E
ENDCHAR
STARTCHAR uni01AE
ENCODING 430
SWIDTH 714 0
DWIDTH 12 0
BBX 10 16 1 -3
BITMAP
FFC0
8C40
0C00
0C00
0C00
0C00
0C00
0C00
0C00
0C00
0C00
0C00
0C00
0C40
0C40
07C0
ENDCHAR
STARTCHAR Uhorn
ENCODING 431
SWIDTH 747 0
DWIDTH 13 0
BBX 14 13 0 0
BITMAP
F07C
603C
6024
6024
6038
6020
6020
6020
6020
6020
6020
3040
1F80
ENDCHAR
STARTCHAR uhorn
ENCODING 432
SWIDTH 654 0
DWIDTH 11 0
BBX 12 9 0 0
BITMAP
E3F0
61F0
6190
6190
61E0
6180
6180
6380
3DC0
ENDCHAR
STARTCHAR uni01B5
ENCODING 437
SWIDTH 639 0
DWIDTH 11 0
BBX 9 13 1 0
BITMAP
FF80
C300
8300
0600
0E00
0C00
1E00
1800
3800
3000
6080
6080
FF80
ENDCHAR
STARTCHAR uni01B6
ENCODING 438
SWIDTH 584 0
DWIDTH 10 0
BBX 8 9 1 0
BITMAP
FF
86
0E
1C
3C
30
70
61
FF
ENDCHAR
STARTCHAR uni01BB
ENCODING 443
SWIDTH 623 0
DWIDTH 11 0
BBX 8 13 1 0
BITMAP
7C
C6
83
03
03
02
FF
08
10
20
40
FF
FF
ENDCHAR
STARTCHAR uni01BC
ENCODING 444
SWIDTH 623 0
DWIDTH 11 0
BBX 7 13 2 0
BITMAP
FE
80
80
80
F8
1C
0E
06
06
06
86
8C
F8
ENDCHAR
STARTCHAR uni01C0
ENCODING 448
SWIDTH 259 0
DWIDTH 4 0
BBX 1 16 2 -3
BITMAP
80
80
80
80
80
80
80
80
80
80
80
80
80
80
80
80
ENDCHAR
STARTCHAR uni01C2
ENCODING 450
SWIDTH 623 0
DWIDTH 11 0
BBX 10 16 0 -3
BITMAP
0400
0400
0400
0400
0400
0400
FFC0
0400
0400
0400
FFC0
0400
0400
0400
0400
0400
ENDCHAR
STARTCHAR uni01C3
ENCODING 451
SWIDTH 265 0
DWIDTH 4 0
BBX 2 13 1 0
BITMAP
C0
C0
C0
C0
C0
C0
40
40
40
00
00
C0
C0
ENDCHAR
STARTCHAR uni01CD
ENCODING 461
SWIDTH 795 0
DWIDTH 14 0
BBX 14 16 0 0
BITMAP
0CC0
0780
0000
0200
0300
0700
0580
0D80
09C0
08C0
10E0
1FE0
2070
2030
4038
E07C
ENDCHAR
STARTCHAR uni01CE
ENCODING 462
SWIDTH 556 0
DWIDTH 9 0
BBX 8 12 1 0
BITMAP
66
3C
00
7C
46
46
06
7E
E6
C6
C6
7F
ENDCHAR
STARTCHAR uni01CF
ENCODING 463
SWIDTH 349 0
DWIDTH 6 0
BBX 6 16 0 0
BITMAP
CC
78
00
78
30
30
30
30
30
30
30
30
30
30
30
78
ENDCHAR
STARTCHAR uni01D0
ENCODING 464
SWIDTH 325 0
DWIDTH 6 0
BBX 6 12 0 0
BITMAP
CC
78
00
70
30
30
30
30
30
30
30
78
ENDCHAR
STARTCHAR uni01D1
ENCODING 465
SWIDTH 810 0
DWIDTH 14 0
BBX 12 16 1 0
BITMAP
1980
0F00
0000
1F80
30C0
6060
6060
C030
C030
C030
C030
C030
6060
6060
30C0
1F80
ENDCHAR
STARTCHAR uni01D2
ENCODING 466
SWIDTH 617 0
DWIDTH 10 0
BBX 9 12 1 0
BITMAP
3300
1E00
0000
3E00
6300
C180
C180
C180
C180
C180
6300
3E00
ENDCHAR
STARTCHAR uni01D3
ENCODING 467
SWIDTH 747 0
DWIDTH 13 0
BBX 12 16 0 0
BITMAP
3300
1E00
0000
F070
6020
6020
6020
6020
6020
6020
6020
6020
6020
6020
3040
1F80
ENDCHAR
STARTCHAR uni01D4
ENCODING 468
SWIDTH 654 0
DWIDTH 11 0
BBX 10 12 0 0
BITMAP
3300
1E00
0000
E380
6180
6180
6180
6180
6180
6180
6380
3DC0
ENDCHAR
STARTCHAR uni01D5
ENCODING 469
SWIDTH 747 0
DWIDTH 13 0
BBX 12 17 0 0
BITMAP
1F00
0000
0D80
0000
F070
6020
6020
6020
6020
6020
6020
6020
6020
6020
6020
3040
1F80
ENDCHAR
STARTCHAR uni01D6
ENCODING 470
SWIDTH 654 0
DWIDTH 11 0
BBX 10 13 0 0
BITMAP
3E00
0000
1B00
0000
E380
6180
6180
6180
6180
6180
6180
6380
3DC0
ENDCHAR
STARTCHAR uni01D7
ENCODING 471
SWIDTH 747 0
DWIDTH 13 0
BBX 12 18 0 0
BITMAP
0700
0C00
0000
0D80
0000
F070
6020
6020
6020
6020
6020
6020
6020
6020
6020
6020
3040
1F80
ENDCHAR
STARTCHAR uni01D8
ENCODING 472
SWIDTH 654 0
DWIDTH 11 0
BBX 10 14 0 0
BITMAP
0700
0C00
0000
1B00
0000
E380
6180
6180
6180
6180
6180
6180
6380
3DC0
ENDCHAR
STARTCHAR uni01D9
ENCODING 473
SWIDTH 747 0
DWIDTH 13 0
BBX 12 18 0 0
BITMAP
1980
0F00
0000
0D80
0000
F070
6020
6020
6020
6020
6020
6020
6020
6020
6020
6020
3040
1F80
ENDCHAR
STARTCHAR uni01DA
ENCODING 474
SWIDTH 654 0
DWIDTH 11 0
BBX 10 14 0 0
BITMAP
3300
1E00
0000
1B00
0000
E380
6180
6180
6180
6180
6180
6180
6380
3DC0
ENDCHAR
STARTCHAR uni01DB
ENCODING 475
SWIDTH 747 0
DWIDTH 13 0
BBX 12 18 0 0
BITMAP
1C00
0600
0000
0D80
0000
F070
6020
6020
6020
6020
6020
6020
6020
6020
6020
6020
3040
1F80
ENDCHAR
STARTCHAR uni01DC
ENCODING 476
SWIDTH 654 0
DWIDTH 11 0
BBX 10 14 0 0
BITMAP
3800
0C00
0000
1B00
0000
E380
6180
6180
6180
6180
6180
6180
6380
3DC0
ENDCHAR
STARTCHAR uni01DD
ENCODING 477
SWIDTH 568 0
DWIDTH 10 0
BBX 8 9 1 0
BITMAP
FC
86
03
03
FF
C3
C3
46
3C
ENDCHAR
STARTCHAR uni01DE
ENCODING 478
SWIDTH 795 0
DWIDTH 14 0
BBX 14 17 0 0
BITMAP
07C0
0000
06C0
0000
0200
0300
0700
0580
0D80
09C0
08C0
10E0
1FE0
2070
2030
4038
E07C
ENDCHAR
STARTCHAR uni01DF
ENCODING 479
SWIDTH 556 0
DWIDTH 9 0
BBX 8 13 1 0
BITMAP
7C
00
6C
00
7C
46
46
06
7E
E6
C6
C6
7F
ENDCHAR
STARTCHAR uni01E0
ENCODING 480
SWIDTH 795 0
DWIDTH 14 0
BBX 14 18 0 0
BITMAP
0F80
0000
0300
0300
0000
0200
0300
0700
0580
0D80
09C0
08C0
10E0
1FE0
2070
2030
4038
E07C
ENDCHAR
STARTCHAR uni01E1
ENCODING 481
SWIDTH 556 0
DWIDTH 9 0
BBX 8 14 1 0
BITMAP
7C
00
18
18
00
7C
46
46
06
7E
E6
C6
C6
7F
ENDCHAR
STARTCHAR uni01E2
ENCODING 482
SWIDTH 959 0
DWIDTH 16 0
BBX 16 15 0 0
BITMAP
01F0
0000
00FF
01C1
03C0
02C0
04C2
04FE
08C2
10C0
1FC0
20C0
20C0
40C1
E1FF
ENDCHAR
STARTCHAR uni01E3
ENCODING 483
SWIDTH 858 0
DWIDTH 15 0
BBX 13 11 1 0
BITMAP
0F80
0000
3CE0
4710
4618
0618
7FF8
E600
C600
C708
79F8
ENDCHAR
STARTCHAR uni01E4
ENCODING 484
SWIDTH 753 0
DWIDTH 13 0
BBX 12 13 1 0
BITMAP
0FE0
3860
6020
6000
C000
C000
C000
C0F0
C060
60F0
6060
3860
0FE0
ENDCHAR
STARTCHAR uni01E5
ENCODING 485
SWIDTH 599 0
DWIDTH 10 0
BBX 10 12 0 -3
BITMAP
1FC0
63C0
6300
6300
6300
3E00
2000
6000
3F80
FFC0
C380
7E00
ENDCHAR
STARTCHAR Gcaron
ENCODING 486
SWIDTH 753 0
DWIDTH 13 0
BBX 12 16 1 0
BITMAP
1980
0F00
0000
0FE0
3860
6020
6000
C000
C000
C000
C0F0
C060
6060
6060
3860
0FE0
ENDCHAR
STARTCHAR gcaron
ENCODING 487
SWIDTH 599 0
DWIDTH 10 0
BBX 10 15 0 -3
BITMAP
3300
1E00
0000
1FC0
63C0
6300
6300
6300
3E00
2000
6000
3F80
C180
C380
7E00
ENDCHAR
STARTCHAR uni01E8
ENCODING 488
SWIDTH 747 0
DWIDTH 13 0
BBX 12 16 1 0
BITMAP
3300
1E00
0000
F1E0
60C0
6100
6200
6400
7800
7800
6C00
6600
6300
6380
61C0
F3F0
ENDCHAR
STARTCHAR uni01E9
ENCODING 489
SWIDTH 654 0
DWIDTH 11 0
BBX 11 16 0 0
BITMAP
CC00
7800
0000
E000
6000
6000
6000
63C0
6180
6600
6C00
7C00
6E00
6700
6380
F1E0
ENDCHAR
STARTCHAR uni01EA
ENCODING 490
SWIDTH 810 0
DWIDTH 14 0
BBX 12 16 1 -3
BITMAP
1F80
30C0
6060
6060
C030
C030
C030
C030
C030
6060
6060
30C0
1F80
0000
0600
0700
ENDCHAR
STARTCHAR uni01EB
ENCODING 491
SWIDTH 617 0
DWIDTH 10 0
BBX 9 12 1 -3
BITMAP
3E00
6300
C180
C180
C180
C180
C180
6300
3E00
0000
1800
1C00
ENDCHAR
STARTCHAR uni01EC
ENCODING 492
SWIDTH 810 0
DWIDTH 14 0
BBX 12 18 1 -3
BITMAP
0F80
0000
1F80
30C0
6060
6060
C030
C030
C030
C030
C030
6060
6060
30C0
1F80
0000
0600
0700
ENDCHAR
STARTCHAR uni01ED
ENCODING 493
SWIDTH 617 0
DWIDTH 10 0
BBX 9 14 1 -3
BITMAP
3E00
0000
3E00
6300
C180
C180
C180
C180
C180
6300
3E00
0000
1800
1C00
ENDCHAR
STARTCHAR uni01F0
ENCODING 496
SWIDTH 355 0
DWIDTH 6 0
BBX 7 15 0 -3
BITMAP
66
3C
00
3C
0C
0C
0C
0C
0C
0C
0C
0C
8C
8C
F8
ENDCHAR
STARTCHAR uni01F4
ENCODING 500
SWIDTH 753 0
DWIDTH 13 0
BBX 12 16 1 0
BITMAP
0380
0600
0000
0FE0
3860
6020
6000
C000
C000
C000
C0F0
C060
6060
6060
3860
0FE0
ENDCHAR
STARTCHAR uni01F5
ENCODING 501
SWIDTH 599 0
DWIDTH 10 0
BBX 10 15 0 -3
BITMAP
0700
0C00
0000
1FC0
63C0
6300
6300
6300
3E00
2000
6000
3F80
C180
C380
7E00
ENDCHAR
STARTCHAR uni01F8
ENCODING 504
SWIDTH 788 0
DWIDTH 13 0
BBX 12 16 1 0
BITMAP
1C00
0600
0000
E070
7020
7020
5820
5C20
4E20
4620
4320
43A0
41A0
40E0
4060
E060
ENDCHAR
STARTCHAR uni01F9
ENCODING 505
SWIDTH 654 0
DWIDTH 11 0
BBX 10 12 1 0
BITMAP
3800
0C00
0000
EF00
7180
6180
6180
6180
6180
6180
6180
F3C0
ENDCHAR
STARTCHAR Aringacute
ENCODING 506
SWIDTH 795 0
DWIDTH 14 0
BBX 14 19 0 0
BITMAP
01C0
0300
0000
0380
0380
0000
0200
0300
0700
0580
0D80
09C0
08C0
10E0
1FE0
2070
2030
4038
E07C
ENDCHAR
STARTCHAR aringacute
ENCODING 507
SWIDTH 556 0
DWIDTH 9 0
BBX 8 15 1 0
BITMAP
1C
30
00
38
38
00
7C
46
46
06
7E
E6
C6
C6
7F
ENDCHAR
STARTCHAR AEacute
ENCODING 508
SWIDTH 959 0
DWIDTH 16 0
BBX 16 16 0 0
BITMAP
0070
00C0
0000
00FF
01C1
03C0
02C0
04C2
04FE
08C2
10C0
1FC0
20C0
20C0
40C1
E1FF
ENDCHAR
STARTCHAR aeacute
ENCODING 509
SWIDTH 858 0
DWIDTH 15 0
BBX 13 12 1 0
BITMAP
0380
0600
0000
3CE0
4710
4618
0618
7FF8
E600
C600
C708
79F8
ENDCHAR
STARTCHAR Oslashacute
ENCODING 510
SWIDTH 810 0
DWIDTH 14 0
BBX 12 16 1 0
BITMAP
0380
0600
0000
1F10
30E0
6060
60F0
C1B0
C330
C630
CC30
D830
F060
6060
70C0
9F80
ENDCHAR
STARTCHAR oslashacute
ENCODING 511
SWIDTH 617 0
DWIDTH 10 0
BBX 10 12 0 0
BITMAP
0700
0C00
0000
3EC0
6180
C1C0
C2C0
CCC0
F0C0
E0C0
6180
DF00
ENDCHAR
STARTCHAR uni0200
ENCODING 512
SWIDTH 795 0
DWIDTH 14 0
BBX 14 16 0 0
BITMAP
1B00
0680
0000
0200
0300
0700
0580
0D80
09C0
08C0
10E0
1FE0
2070
2030
4038
E07C
ENDCHAR
STARTCHAR uni0201
ENCODING 513
SWIDTH 556 0
DWIDTH 9 0
BBX 8 12 1 0
BITMAP
D8
34
00
7C
46
46
06
7E
E6
C6
C6
7F
ENDCHAR
STARTCHAR uni0202
ENCODING 514
SWIDTH 795 0
DWIDTH 14 0
BBX 14 16 0 0
BITMAP
0780
0840
0000
0200
0300
0700
0580
0D80
09C0
08C0
10E0
1FE0
2070
2030
4038
E07C
ENDCHAR
STARTCHAR uni0203
ENCODING 515
SWIDTH 556 0
DWIDTH 9 0
BBX 8 12 1 0
BITMAP
3C
42
00
7C
46
46
06
7E
E6
C6
C6
7F
ENDCHAR
STARTCHAR uni0204
ENCODING 516
SWIDTH 601 0
DWIDTH 10 0
BBX 9 16 1 0
BITMAP
D800
3400
0000
FF00
6100
6000
6000
6000
6200
7E00
6200
6000
6000
6000
6080
FF80
ENDCHAR
STARTCHAR uni0205
ENCODING 517
SWIDTH 568 0
DWIDTH 10 0
BBX 8 12 1 0
BITMAP
D8
34
00
3C
62
C3
C3
FF
C0
C0
61
3F
ENDCHAR
STARTCHAR uni0206
ENCODING 518
SWIDTH 601 0
DWIDTH 10 0
BBX 9 16 1 0
BITMAP
3C00
4200
0000
FF00
6100
6000
6000
6000
6200
7E00
6200
6000
6000
6000
6080
FF80
ENDCHAR
STARTCHAR uni0207
ENCODING 519
SWIDTH 568 0
DWIDTH 10 0
BBX 8 12 1 0
BITMAP
3C
42
00
3C
62
C3
C3
FF
C0
C0
61
3F
ENDCHAR
STARTCHAR uni0208
ENCODING 520
SWIDTH 349 0
DWIDTH 6 0
BBX 6 16 -1 0
BITMAP
D8
34
00
3C
18
18
18
18
18
18
18
18
18
18
18
3C
ENDCHAR
STARTCHAR uni0209
ENCODING 521
SWIDTH 325 0
DWIDTH 6 0
BBX 6 12 -1 0
BITMAP
D8
34
00
38
18
18
18
18
18
18
18
3C
ENDCHAR
STARTCHAR uni020A
ENCODING 522
SWIDTH 349 0
DWIDTH 6 0
BBX 6 16 0 0
BITMAP
78
84
00
78
30
30
30
30
30
30
30
30
30
30
30
78
ENDCHAR
STARTCHAR uni020B
ENCODING 523
SWIDTH 325 0
DWIDTH 6 0
BBX 6 12 0 0
BITMAP
78
84
00
70
30
30
30
30
30
30
30
78
ENDCHAR
STARTCHAR uni020C
ENCODING 524
SWIDTH 810 0
DWIDTH 14 0
BBX 12 16 1 0
BITMAP
3600
0D00
0000
1F80
30C0
6060
6060
C030
C030
C030
C030
C030
6060
6060
30C0
1F80
ENDCHAR
STARTCHAR uni020D
ENCODING 525
SWIDTH 617 0
DWIDTH 10 0
BBX 9 12 1 0
BITMAP
6C00
1A00
0000
3E00
6300
C180
C180
C180
C180
C180
6300
3E00
ENDCHAR
STARTCHAR uni020E
ENCODING 526
SWIDTH 810 0
DWIDTH 14 0
BBX 12 16 1 0
BITMAP
0F00
1080
0000
1F80
30C0
6060
6060
C030
C030
C030
C030
C030
6060
6060
30C0
1F80
ENDCHAR
STARTCHAR uni020F
ENCODING 527
SWIDTH 617 0
DWIDTH 10 0
BBX 9 12 1 0
BITMAP
1E00
2100
0000
3E00
6300
C180
C180
C180
C180
C180
6300
3E00
ENDCHAR
STARTCHAR uni0210
ENCODING 528
SWIDTH 720 0
DWIDTH 12 0
BBX 11 16 1 0
BITMAP
6C00
1A00
0000
FF00
6380
6180
6180
6180
6300
7F00
6600
6700
6300
6380
6180
F0E0
ENDCHAR
STARTCHAR uni0211
ENCODING 529
SWIDTH 462 0
DWIDTH 8 0
BBX 6 12 1 0
BITMAP
D8
34
00
EC
74
64
60
60
60
60
60
F8
ENDCHAR
STARTCHAR uni0212
ENCODING 530
SWIDTH 720 0
DWIDTH 12 0
BBX 11 16 1 0
BITMAP
1E00
2100
0000
FF00
6380
6180
6180
6180
6300
7F00
6600
6700
6300
6380
6180
F0E0
ENDCHAR
STARTCHAR uni0213
ENCODING 531
SWIDTH 462 0
DWIDTH 8 0
BBX 6 12 1 0
BITMAP
78
84
00
EC
74
64
60
60
60
60
60
F8
ENDCHAR
STARTCHAR uni0214
ENCODING 532
SWIDTH 747 0
DWIDTH 13 0
BBX 12 16 0 0
BITMAP
3600
0D00
0000
F070
6020
6020
6020
6020
6020
6020
6020
6020
6020
6020
3040
1F80
ENDCHAR
STARTCHAR uni0215
ENCODING 533
SWIDTH 654 0
DWIDTH 11 0
BBX 10 12 0 0
BITMAP
6C00
1A00
0000
E380
6180
6180
6180
6180
6180
6180
6380
3DC0
ENDCHAR
STARTCHAR uni0216
ENCODING 534
SWIDTH 747 0
DWIDTH 13 0
BBX 12 16 0 0
BITMAP
1E00
2100
0000
F070
6020
6020
6020
6020
6020
6020
6020
6020
6020
6020
3040
1F80
ENDCHAR
STARTCHAR uni0217
ENCODING 535
SWIDTH 654 0
DWIDTH 11 0
BBX 10 12 0 0
BITMAP
1E00
2100
0000
E380
6180
6180
6180
6180
6180
6180
6380
3DC0
ENDCHAR
STARTCHAR Scommaaccent
ENCODING 536
SWIDTH 556 0
DWIDTH 9 0
BBX 8 20 1 -7
BITMAP
3E
62
C2
C0
E0
78
3C
0E
03
03
83
C6
FC
00
1C
1C
1C
04
04
18
ENDCHAR
STARTCHAR scommaaccent
ENCODING 537
SWIDTH 525 0
DWIDTH 9 0
BBX 7 16 1 -7
BITMAP
7C
C4
C4
F0
7C
1E
86
86
FC
00
38
38
38
08
08
30
ENDCHAR
STARTCHAR Tcommaaccent
ENCODING 538
SWIDTH 714 0
DWIDTH 12 0
BBX 10 20 1 -7
BITMAP
FFC0
8C40
0C00
0C00
0C00
0C00
0C00
0C00
0C00
0C00
0C00
0C00
3F00
0000
0E00
0E00
0E00
0200
0200
0C00
ENDCHAR
STARTCHAR tcommaaccent
ENCODING 539
SWIDTH 389 0
DWIDTH 7 0
BBX 5 19 1 -7
BITMAP
60
60
60
F8
60
60
60
60
60
60
60
38
00
70
70
70
10
10
60
ENDCHAR
STARTCHAR uni021E
ENCODING 542
SWIDTH 798 0
DWIDTH 14 0
BBX 12 16 1 0
BITMAP
1980
0F00
0000
F0F0
6060
6060
6060
6060
6060
7FE0
6060
6060
6060
6060
6060
F0F0
ENDCHAR
STARTCHAR uni021F
ENCODING 543
SWIDTH 654 0
DWIDTH 11 0
BBX 10 16 1 0
BITMAP
CC00
7800
0000
E000
6000
6000
6000
6F00
7180
6180
6180
6180
6180
6180
6180
F3C0
ENDCHAR
STARTCHAR uni0226
ENCODING 550
SWIDTH 795 0
DWIDTH 14 0
BBX 14 16 0 0
BITMAP
0300
0300
0000
0200
0300
0700
0580
0D80
09C0
08C0
10E0
1FE0
2070
2030
4038
E07C
ENDCHAR
STARTCHAR uni0227
ENCODING 551
SWIDTH 556 0
DWIDTH 9 0
BBX 8 12 1 0
BITMAP
18
18
00
7C
46
46
06
7E
E6
C6
C6
7F
ENDCHAR
STARTCHAR uni0228
ENCODING 552
SWIDTH 601 0
DWIDTH 10 0
BBX 9 16 1 -3
BITMAP
FF00
6100
6000
6000
6000
6200
7E00
6200
6000
6000
6000
6080
FF80
1800
0400
1C00
ENDCHAR
STARTCHAR uni0229
ENCODING 553
SWIDTH 568 0
DWIDTH 10 0
BBX 8 12 1 -3
BITMAP
3C
62
C3
C3
FF
C0
C0
61
3F
18
04
1C
ENDCHAR
STARTCHAR uni022A
ENCODING 554
SWIDTH 810 0
DWIDTH 14 0
BBX 12 17 1 0
BITMAP
1F00
0000
1B00
0000
1F80
30C0
6060
6060
C030
C030
C030
C030
C030
6060
6060
30C0
1F80
ENDCHAR
STARTCHAR uni022B
ENCODING 555
SWIDTH 617 0
DWIDTH 10 0
BBX 9 13 1 0
BITMAP
3E00
0000
3600
0000
3E00
6300
C180
C180
C180
C180
C180
6300
3E00
ENDCHAR
STARTCHAR uni022C
ENCODING 556
SWIDTH 810 0
DWIDTH 14 0
BBX 12 18 1 0
BITMAP
0F80
0000
0E80
1700
0000
1F80
30C0
6060
6060
C030
C030
C030
C030
C030
6060
6060
30C0
1F80
ENDCHAR
STARTCHAR uni022D
ENCODING 557
SWIDTH 617 0
DWIDTH 10 0
BBX 9 14 1 0
BITMAP
3E00
0000
3A00
5C00
0000
3E00
6300
C180
C180
C180
C180
C180
6300
3E00
ENDCHAR
STARTCHAR uni022E
ENCODING 558
SWIDTH 810 0
DWIDTH 14 0
BBX 12 16 1 0
BITMAP
0600
0600
0000
1F80
30C0
6060
6060
C030
C030
C030
C030
C030
6060
6060
30C0
1F80
ENDCHAR
STARTCHAR uni022F
ENCODING 559
SWIDTH 617 0
DWIDTH 10 0
BBX 9 12 1 0
BITMAP
0C00
0C00
0000
3E00
6300
C180
C180
C180
C180
C180
6300
3E00
ENDCHAR
STARTCHAR uni0230
ENCODING 560
SWIDTH 810 0
DWIDTH 14 0
BBX 12 18 1 0
BITMAP
0F80
0000
0600
0600
0000
1F80
30C0
6060
6060
C030
C030
C030
C030
C030
6060
6060
30C0
1F80
ENDCHAR
STARTCHAR uni0231
ENCODING 561
SWIDTH 617 0
DWIDTH 10 0
BBX 9 14 1 0
BITMAP
3E00
0000
0C00
0C00
0000
3E00
6300
C180
C180
C180
C180
C180
6300
3E00
ENDCHAR
STARTCHAR uni0232
ENCODING 562
SWIDTH 717 0
DWIDTH 12 0
BBX 12 15 0 0
BITMAP
1F00
0000
FCF0
7020
3840
18C0
0C80
0D00
0700
0600
0600
0600
0600
0600
0F00
ENDCHAR
STARTCHAR uni0233
ENCODING 563
SWIDTH 654 0
DWIDTH 11 0
BBX 11 14 0 -3
BITMAP
1F00
0000
F8E0
7040
3080
1880
1900
1F00
0E00
0C00
0400
0800
1800
3000
ENDCHAR
STARTCHAR uni0250
ENCODING 592
SWIDTH 556 0
DWIDTH 9 0
BBX 8 9 1 0
BITMAP
FE
63
63
67
7E
60
62
62
3E
ENDCHAR
STARTCHAR uni0254
ENCODING 596
SWIDTH 541 0
DWIDTH 9 0
BBX 8 9 0 0
BITMAP
FC
86
83
03
03
03
03
06
FC
ENDCHAR
STARTCHAR uni0258
ENCODING 600
SWIDTH 568 0
DWIDTH 10 0
BBX 8 9 1 0
BITMAP
3C
46
C3
C3
FF
03
03
86
FC
ENDCHAR
STARTCHAR uni0259
ENCODING 601
SWIDTH 568 0
DWIDTH 10 0
BBX 8 9 1 0
BITMAP
FC
86
03
03
FF
C3
C3
46
3C
ENDCHAR
STARTCHAR uni025F
ENCODING 607
SWIDTH 416 0
DWIDTH 7 0
BBX 6 13 1 -4
BITMAP
3C
18
18
18
18
18
18
18
7C
18
98
98
F0
ENDCHAR
STARTCHAR uni0265
ENCODING 613
SWIDTH 654 0
DWIDTH 11 0
BBX 10 13 1 -4
BITMAP
F3C0
6180
6180
6180
6180
6180
6180
6380
3D80
0180
0180
0180
01C0
ENDCHAR
STARTCHAR uni0275
ENCODING 629
SWIDTH 617 0
DWIDTH 10 0
BBX 9 9 1 0
BITMAP
3E00
6300
C180
C180
FF80
C180
C180
6300
3E00
ENDCHAR
STARTCHAR uni0279
ENCODING 633
SWIDTH 462 0
DWIDTH 8 0
BBX 6 9 1 0
BITMAP
7C
18
18
18
18
18
98
B8
DC
ENDCHAR
STARTCHAR uni0287
ENCODING 647
SWIDTH 389 0
DWIDTH 7 0
BBX 5 12 1 0
BITMAP
E0
30
30
30
30
30
30
30
F8
30
30
30
ENDCHAR
STARTCHAR uni0288
ENCODING 648
SWIDTH 389 0
DWIDTH 7 0
BBX 7 15 1 -3
BITMAP
60
60
60
F8
60
60
60
60
60
60
60
60
62
62
3E
ENDCHAR
STARTCHAR uni0289
ENCODING 649
SWIDTH 654 0
DWIDTH 11 0
BBX 10 9 0 0
BITMAP
E380
6180
6180
6180
FFC0
6180
6180
6380
3DC0
ENDCHAR
STARTCHAR uni028C
ENCODING 652
SWIDTH 657 0
DWIDTH 11 0
BBX 11 9 0 0
BITMAP
0400
0C00
0E00
1600
1300
2300
2180
41C0
E3E0
ENDCHAR
STARTCHAR uni028D
ENCODING 653
SWIDTH 880 0
DWIDTH 15 0
BBX 15 9 0 0
BITMAP
0820
0C60
1C70
1C70
36B8
2698
2718
431C
E33E
ENDCHAR
STARTCHAR uni028E
ENCODING 654
SWIDTH 654 0
DWIDTH 11 0
BBX 11 12 0 0
BITMAP
0180
0300
0200
0400
0600
0E00
1F00
1300
2300
2180
41C0
E3E0
ENDCHAR
STARTCHAR uni029E
ENCODING 670
SWIDTH 654 0
DWIDTH 11 0
BBX 11 13 0 -4
BITMAP
F1E0
38C0
1CC0
0EC0
07C0
06C0
0CC0
30C0
78C0
00C0
00C0
00C0
00E0
ENDCHAR
STARTCHAR uni02BB
ENCODING 699
SWIDTH 265 0
DWIDTH 4 0
BBX 3 5 1 8
BITMAP
60
80
80
E0
E0
ENDCHAR
STARTCHAR afii57929
ENCODING 700
SWIDTH 265 0
DWIDTH 4 0
BBX 3 5 1 8
BITMAP
E0
E0
20
20
C0
ENDCHAR
STARTCHAR afii64937
ENCODING 701
SWIDTH 265 0
DWIDTH 4 0
BBX 3 5 1 8
BITMAP
E0
E0
80
80
60
ENDCHAR
STARTCHAR circumflex
ENCODING 710
SWIDTH 617 0
DWIDTH 10 0
BBX 6 2 2 11
BITMAP
78
CC
ENDCHAR
STARTCHAR caron
ENCODING 711
SWIDTH 617 0
DWIDTH 10 0
BBX 6 2 2 11
BITMAP
CC
78
ENDCHAR
STARTCHAR uni02C8
ENCODING 712
SWIDTH 253 0
DWIDTH 4 0
BBX 3 5 1 8
BITMAP
E0
E0
E0
40
40
ENDCHAR
STARTCHAR macron
ENCODING 713
SWIDTH 617 0
DWIDTH 10 0
BBX 5 1 3 12
BITMAP
F8
ENDCHAR
STARTCHAR uni02CA
ENCODING 714
SWIDTH 617 0
DWIDTH 10 0
BBX 4 2 4 11
BITMAP
70
C0
ENDCHAR
STARTCHAR uni02CB
ENCODING 715
SWIDTH 617 0
DWIDTH 10 0
BBX 4 2 3 11
BITMAP
E0
30
ENDCHAR
STARTCHAR uni02CD
ENCODING 717
SWIDTH 617 0
DWIDTH 10 0
BBX 5 1 3 -2
BITMAP
F8
ENDCHAR
STARTCHAR uni02CE
ENCODING 718
SWIDTH 617 0
DWIDTH 10 0
BBX 4 2 3 -3
BITMAP
E0
30
ENDCHAR
STARTCHAR uni02CF
ENCODING 719
SWIDTH 617 0
DWIDTH 10 0
BBX 4 2 4 -3
BITMAP
70
C0
ENDCHAR
STARTCHAR breve
ENCODING 728
SWIDTH 617 0
DWIDTH 10 0
BBX 6 2 2 11
BITMAP
84
78
ENDCHAR
STARTCHAR dotaccent
ENCODING 729
SWIDTH 617 0
DWIDTH 10 0
BBX 2 2 4 11
BITMAP
C0
C0
ENDCHAR
STARTCHAR ring
ENCODING 730
SWIDTH 617 0
DWIDTH 10 0
BBX 3 2 4 11
BITMAP
E0
E0
ENDCHAR
STARTCHAR ogonek
ENCODING 731
SWIDTH 617 0
DWIDTH 10 0
BBX 3 2 4 -3
BITMAP
C0
E0
ENDCHAR
STARTCHAR tilde
ENCODING 732
SWIDTH 617 0
DWIDTH 10 0
BBX 6 2 2 11
BITMAP
74
B8
ENDCHAR
STARTCHAR hungarumlaut
ENCODING 733
SWIDTH 617 0
DWIDTH 10 0
BBX 6 2 3 11
BITMAP
6C
B0
ENDCHAR
STARTCHAR uni02EE
ENCODING 750
SWIDTH 470 0
DWIDTH 8 0
BBX 7 5 2 8
BITMAP
66
66
22
66
88
ENDCHAR
STARTCHAR uni037E
ENCODING 894
SWIDTH 265 0
DWIDTH 4 0
BBX 2 12 1 -3
BITMAP
C0
C0
00
00
00
00
00
C0
C0
40
40
80
ENDCHAR
STARTCHAR tonos
ENCODING 900
SWIDTH 617 0
DWIDTH 10 0
BBX 4 2 4 11
BITMAP
70
C0
ENDCHAR
STARTCHAR dieresistonos
ENCODING 901
SWIDTH 617 0
DWIDTH 10 0
BBX 5 4 3 12
BITMAP
38
60
00
D8
ENDCHAR
STARTCHAR anoteleia
ENCODING 903
SWIDTH 623 0
DWIDTH 11 0
BBX 2 2 4 4
BITMAP
C0
C0
ENDCHAR
STARTCHAR mu
ENCODING 956
SWIDTH 705 0
DWIDTH 12 0
BBX 10 12 1 -3
BITMAP
E380
6180
6180
6180
6180
6180
6180
6380
7DC0
6000
6000
6000
ENDCHAR
STARTCHAR uni1E00
ENCODING 7680
SWIDTH 795 0
DWIDTH 14 0
BBX 14 16 0 -3
BITMAP
0200
0300
0700
0580
0D80
09C0
08C0
10E0
1FE0
2070
2030
4038
E07C
0000
0380
0380
ENDCHAR
STARTCHAR uni1E01
ENCODING 7681
SWIDTH 556 0
DWIDTH 9 0
BBX 8 12 1 -3
BITMAP
7C
46
46
06
7E
E6
C6
C6
7F
00
38
38
ENDCHAR
STARTCHAR uni1E02
ENCODING 7682
SWIDTH 639 0
DWIDTH 11 0
BBX 9 16 1 0
BITMAP
0C00
0C00
0000
FF00
6380
6180
6180
6180
6300
7E00
6300
6180
6180
6180
6380
FE00
ENDCHAR
STARTCHAR uni1E03
ENCODING 7683
SWIDTH 640 0
DWIDTH 11 0
BBX 10 16 0 0
BITMAP
3000
3000
0000
E000
6000
6000
6000
6F00
7180
60C0
60C0
60C0
60C0
60C0
7180
6F00
ENDCHAR
STARTCHAR uni1E04
ENCODING 7684
SWIDTH 639 0
DWIDTH 11 0
BBX 9 16 1 -3
BITMAP
FF00
6380
6180
6180
6180
6300
7E00
6300
6180
6180
6180
6380
FE00
0000
0C00
0C00
ENDCHAR
STARTCHAR uni1E05
ENCODING 7685
SWIDTH 640 0
DWIDTH 11 0
BBX 10 16 0 -3
BITMAP
E000
6000
6000
6000
6F00
7180
60C0
60C0
60C0
60C0
60C0
7180
6F00
0000
0C00
0C00
ENDCHAR
STARTCHAR uni1E06
ENCODING 7686
SWIDTH 639 0
DWIDTH 11 0
BBX 9 15 1 -2
BITMAP
FF00
6380
6180
6180
6180
6300
7E00
6300
6180
6180
6180
6380
FE00
0000
3E00
ENDCHAR
STARTCHAR uni1E07
ENCODING 7687
SWIDTH 640 0
DWIDTH 11 0
BBX 10 15 0 -2
BITMAP
E000
6000
6000
6000
6F00
7180
60C0
60C0
60C0
60C0
60C0
7180
6F00
0000
1F00
ENDCHAR
STARTCHAR uni1E08
ENCODING 7688
SWIDTH 711 0
DWIDTH 12 0
BBX 11 19 0 -3
BITMAP
0700
0C00
0000
0FE0
3060
6020
6000
C000
C000
C000
C000
C000
6000
6000
3820
0FC0
0400
0200
0E00
ENDCHAR
STARTCHAR uni1E09
ENCODING 7689
SWIDTH 541 0
DWIDTH 9 0
BBX 8 15 0 -3
BITMAP
0E
18
00
3F
61
C1
C0
C0
C0
C0
60
3F
08
04
1C
ENDCHAR
STARTCHAR uni1E0A
ENCODING 7690
SWIDTH 794 0
DWIDTH 13 0
BBX 12 16 1 0
BITMAP
0600
0600
0000
FF80
60C0
6060
6030
6030
6030
6030
6030
6030
6020
6060
60C0
FF80
ENDCHAR
STARTCHAR uni1E0B
ENCODING 7691
SWIDTH 652 0
DWIDTH 11 0
BBX 10 16 1 0
BITMAP
0300
0300
0000
0380
0180
0180
0180
3D80
6380
C180
C180
C180
C180
C180
6380
3DC0
ENDCHAR
STARTCHAR uni1E0C
ENCODING 7692
SWIDTH 794 0
DWIDTH 13 0
BBX 12 16 1 -3
BITMAP
FF80
60C0
6060
6030
6030
6030
6030
6030
6030
6020
6060
60C0
FF80
0000
0C00
0C00
ENDCHAR
STARTCHAR uni1E0D
ENCODING 7693
SWIDTH 652 0
DWIDTH 11 0
BBX 10 16 1 -3
BITMAP
0380
0180
0180
0180
3D80
6380
C180
C180
C180
C180
C180
6380
3DC0
0000
0C00
0C00
ENDCHAR
STARTCHAR uni1E0E
ENCODING 7694
SWIDTH 794 0
DWIDTH 13 0
BBX 12 15 1 -2
BITMAP
FF80
60C0
6060
6030
6030
6030
6030
6030
6030
6020
6060
60C0
FF80
0000
1F00
ENDCHAR
STARTCHAR uni1E0F
ENCODING 7695
SWIDTH 652 0
DWIDTH 11 0
BBX 10 15 1 -2
BITMAP
0380
0180
0180
0180
3D80
6380
C180
C180
C180
C180
C180
6380
3DC0
0000
1F00
ENDCHAR
STARTCHAR uni1E10
ENCODING 7696
SWIDTH 794 0
DWIDTH 13 0
BBX 12 16 1 -3
BITMAP
FF80
60C0
6060
6030
6030
6030
6030
6030
6030
6020
6060
60C0
FF80
0C00
0200
0E00
ENDCHAR
STARTCHAR uni1E11
ENCODING 7697
SWIDTH 652 0
DWIDTH 11 0
BBX 10 16 1 -3
BITMAP
0380
0180
0180
0180
3D80
6380
C180
C180
C180
C180
C180
6380
3DC0
0C00
0200
0E00
ENDCHAR
STARTCHAR uni1E12
ENCODING 7698
SWIDTH 794 0
DWIDTH 13 0
BBX 12 16 1 -3
BITMAP
FF80
60C0
6060
6030
6030
6030
6030
6030
6030
6020
6060
60C0
FF80
0000
1E00
3300
ENDCHAR
STARTCHAR uni1E13
ENCODING 7699
SWIDTH 652 0
DWIDTH 11 0
BBX 10 16 1 -3
BITMAP
0380
0180
0180
0180
3D80
6380
C180
C180
C180
C180
C180
6380
3DC0
0000
1E00
3300
ENDCHAR
STARTCHAR uni1E14
ENCODING 7700
SWIDTH 601 0
DWIDTH 10 0
BBX 9 18 1 0
BITMAP
7000
1800
0000
7C00
0000
FF00
6100
6000
6000
6000
6200
7E00
6200
6000
6000
6000
6080
FF80
ENDCHAR
STARTCHAR uni1E15
ENCODING 7701
SWIDTH 568 0
DWIDTH 10 0
BBX 8 14 1 0
BITMAP
70
18
00
7C
00
3C
62
C3
C3
FF
C0
C0
61
3F
ENDCHAR
STARTCHAR uni1E16
ENCODING 7702
SWIDTH 601 0
DWIDTH 10 0
BBX 9 18 1 0
BITMAP
0E00
1800
0000
7C00
0000
FF00
6100
6000
6000
6000
6200
7E00
6200
6000
6000
6000
6080
FF80
ENDCHAR
STARTCHAR uni1E17
ENCODING 7703
SWIDTH 568 0
DWIDTH 10 0
BBX 8 14 1 0
BITMAP
1C
30
00
7C
00
3C
62
C3
C3
FF
C0
C0
61
3F
ENDCHAR
STARTCHAR uni1E18
ENCODING 7704
SWIDTH 601 0
DWIDTH 10 0
BBX 9 16 1 -3
BITMAP
FF00
6100
6000
6000
6000
6200
7E00
6200
6000
6000
6000
6080
FF80
0000
3C00
6600
ENDCHAR
STARTCHAR uni1E19
ENCODING 7705
SWIDTH 568 0
DWIDTH 10 0
BBX 8 12 1 -3
BITMAP
3C
62
C3
C3
FF
C0
C0
61
3F
00
3C
66
ENDCHAR
STARTCHAR uni1E1A
ENCODING 7706
SWIDTH 601 0
DWIDTH 10 0
BBX 9 16 1 -3
BITMAP
FF00
6100
6000
6000
6000
6200
7E00
6200
6000
6000
6000
6080
FF80
0000
3A00
5C00
ENDCHAR
STARTCHAR uni1E1B
ENCODING 7707
SWIDTH 568 0
DWIDTH 10 0
BBX 8 12 1 -3
BITMAP
3C
62
C3
C3
FF
C0
C0
61
3F
00
3A
5C
ENDCHAR
STARTCHAR uni1E1C
ENCODING 7708
SWIDTH 601 0
DWIDTH 10 0
BBX 9 19 1 -3
BITMAP
4200
3C00
0000
FF00
6100
6000
6000
6000
6200
7E00
6200
6000
6000
6000
6080
FF80
1800
0400
1C00
ENDCHAR
STARTCHAR uni1E1D
ENCODING 7709
SWIDTH 568 0
DWIDTH 10 0
BBX 8 15 1 -3
BITMAP
42
3C
00
3C
62
C3
C3
FF
C0
C0
61
3F
18
04
1C
ENDCHAR
STARTCHAR uni1E1E
ENCODING 7710
SWIDTH 584 0
DWIDTH 10 0
BBX 8 16 1 0
BITMAP
18
18
00
FF
61
60
60
60
62
7E
62
60
60
60
60
F8
ENDCHAR
STARTCHAR uni1E1F
ENCODING 7711
SWIDTH 416 0
DWIDTH 7 0
BBX 6 16 1 0
BITMAP
30
30
00
3C
64
64
60
F8
60
60
60
60
60
60
60
F0
ENDCHAR
STARTCHAR uni1E20
ENCODING 7712
SWIDTH 753 0
DWIDTH 13 0
BBX 12 15 1 0
BITMAP
1F00
0000
0FE0
3860
6020
6000
C000
C000
C000
C0F0
C060
6060
6060
3860
0FE0
ENDCHAR
STARTCHAR uni1E21
ENCODING 7713
SWIDTH 599 0
DWIDTH 10 0
BBX 10 14 0 -3
BITMAP
1F00
0000
1FC0
63C0
6300
6300
6300
3E00
2000
6000
3F80
C180
C380
7E00
ENDCHAR
STARTCHAR uni1E22
ENCODING 7714
SWIDTH 798 0
DWIDTH 14 0
BBX 12 16 1 0
BITMAP
0600
0600
0000
F0F0
6060
6060
6060
6060
6060
7FE0
6060
6060
6060
6060
6060
F0F0
ENDCHAR
STARTCHAR uni1E23
ENCODING 7715
SWIDTH 654 0
DWIDTH 11 0
BBX 10 16 1 0
BITMAP
3000
3000
0000
E000
6000
6000
6000
6F00
7180
6180
6180
6180
6180
6180
6180
F3C0
ENDCHAR
STARTCHAR uni1E24
ENCODING 7716
SWIDTH 798 0
DWIDTH 14 0
BBX 12 16 1 -3
BITMAP
F0F0
6060
6060
6060
6060
6060
7FE0
6060
6060
6060
6060
6060
F0F0
0000
0600
0600
ENDCHAR
STARTCHAR uni1E25
ENCODING 7717
SWIDTH 654 0
DWIDTH 11 0
BBX 10 16 1 -3
BITMAP
E000
6000
6000
6000
6F00
7180
6180
6180
6180
6180
6180
6180
F3C0
0000
0C00
0C00
ENDCHAR
STARTCHAR uni1E26
ENCODING 7718
SWIDTH 798 0
DWIDTH 14 0
BBX 12 15 1 0
BITMAP
0D80
0000
F0F0
6060
6060
6060
6060
6060
7FE0
6060
6060
6060
6060
6060
F0F0
ENDCHAR
STARTCHAR uni1E27
ENCODING 7719
SWIDTH 654 0
DWIDTH 11 0
BBX 10 15 1 0
BITMAP
D800
0000
E000
6000
6000
6000
6F00
7180
6180
6180
6180
6180
6180
6180
F3C0
ENDCHAR
STARTCHAR uni1E28
ENCODING 7720
SWIDTH 798 0
DWIDTH 14 0
BBX 12 16 1 -3
BITMAP
F0F0
6060
6060
6060
6060
6060
7FE0
6060
6060
6060
6060
6060
F0F0
0600
0100
0700
ENDCHAR
STARTCHAR uni1E29
ENCODING 7721
SWIDTH 654 0
DWIDTH 11 0
BBX 10 16 1 -3
BITMAP
E000
6000
6000
6000
6F00
7180
6180
6180
6180
6180
6180
6180
F3C0
0C00
0200
0E00
ENDCHAR
STARTCHAR uni1E2A
ENCODING 7722
SWIDTH 798 0
DWIDTH 14 0
BBX 12 16 1 -3
BITMAP
F0F0
6060
6060
6060
6060
6060
7FE0
6060
6060
6060
6060
6060
F0F0
0000
1080
0F00
ENDCHAR
STARTCHAR uni1E2B
ENCODING 7723
SWIDTH 654 0
DWIDTH 11 0
BBX 10 16 1 -3
BITMAP
E000
6000
6000
6000
6F00
7180
6180
6180
6180
6180
6180
6180
F3C0
0000
2100
1E00
ENDCHAR
STARTCHAR uni1E2C
ENCODING 7724
SWIDTH 349 0
DWIDTH 6 0
BBX 6 16 0 -3
BITMAP
78
30
30
30
30
30
30
30
30
30
30
30
78
00
74
B8
ENDCHAR
STARTCHAR uni1E2D
ENCODING 7725
SWIDTH 325 0
DWIDTH 6 0
BBX 6 16 0 -3
BITMAP
30
30
00
00
70
30
30
30
30
30
30
30
78
00
74
B8
ENDCHAR
STARTCHAR uni1E2E
ENCODING 7726
SWIDTH 349 0
DWIDTH 6 0
BBX 5 18 2 0
BITMAP
38
60
00
D8
00
78
30
30
30
30
30
30
30
30
30
30
30
78
ENDCHAR
STARTCHAR uni1E2F
ENCODING 7727
SWIDTH 325 0
DWIDTH 6 0
BBX 5 14 2 0
BITMAP
38
60
00
D8
00
70
30
30
30
30
30
30
30
78
ENDCHAR
STARTCHAR uni1E30
ENCODING 7728
SWIDTH 747 0
DWIDTH 13 0
BBX 12 16 1 0
BITMAP
0700
0C00
0000
F1E0
60C0
6100
6200
6400
7800
7800
6C00
6600
6300
6380
61C0
F3F0
ENDCHAR
STARTCHAR uni1E31
ENCODING 7729
SWIDTH 654 0
DWIDTH 11 0
BBX 11 16 0 0
BITMAP
1C00
3000
0000
E000
6000
6000
6000
63C0
6180
6600
6C00
7C00
6E00
6700
6380
F1E0
ENDCHAR
STARTCHAR uni1E32
ENCODING 7730
SWIDTH 747 0
DWIDTH 13 0
BBX 12 16 1 -3
BITMAP
F1E0
60C0
6100
6200
6400
7800
7800
6C00
6600
6300
6380
61C0
F3F0
0000
0600
0600
ENDCHAR
STARTCHAR uni1E33
ENCODING 7731
SWIDTH 654 0
DWIDTH 11 0
BBX 11 16 0 -3
BITMAP
E000
6000
6000
6000
63C0
6180
6600
6C00
7C00
6E00
6700
6380
F1E0
0000
0C00
0C00
ENDCHAR
STARTCHAR uni1E34
ENCODING 7732
SWIDTH 747 0
DWIDTH 13 0
BBX 12 15 1 -2
BITMAP
F1E0
60C0
6100
6200
6400
7800
7800
6C00
6600
6300
6380
61C0
F3F0
0000
1F00
ENDCHAR
STARTCHAR uni1E35
ENCODING 7733
SWIDTH 654 0
DWIDTH 11 0
BBX 11 15 0 -2
BITMAP
E000
6000
6000
6000
63C0
6180
6600
6C00
7C00
6E00
6700
6380
F1E0
0000
1F00
ENDCHAR
STARTCHAR uni1E36
ENCODING 7734
SWIDTH 584 0
DWIDTH 10 0
BBX 9 16 1 -3
BITMAP
F000
6000
6000
6000
6000
6000
6000
6000
6000
6000
6080
6080
FF80
0000
1800
1800
ENDCHAR
STARTCHAR uni1E37
ENCODING 7735
SWIDTH 325 0
DWIDTH 6 0
BBX 4 16 1 -3
BITMAP
E0
60
60
60
60
60
60
60
60
60
60
60
F0
00
60
60
ENDCHAR
STARTCHAR uni1E38
ENCODING 7736
SWIDTH 584 0
DWIDTH 10 0
BBX 9 18 1 -3
BITMAP
F800
0000
F000
6000
6000
6000
6000
6000
6000
6000
6000
6000
6080
6080
FF80
0000
1800
1800
ENDCHAR
STARTCHAR uni1E39
ENCODING 7737
SWIDTH 325 0
DWIDTH 6 0
BBX 5 18 0 -3
BITMAP
F8
00
70
30
30
30
30
30
30
30
30
30
30
30
78
00
30
30
ENDCHAR
STARTCHAR uni1E3A
ENCODING 7738
SWIDTH 584 0
DWIDTH 10 0
BBX 9 15 1 -2
BITMAP
F000
6000
6000
6000
6000
6000
6000
6000
6000
6000
6080
6080
FF80
0000
3E00
ENDCHAR
STARTCHAR uni1E3B
ENCODING 7739
SWIDTH 325 0
DWIDTH 6 0
BBX 5 15 1 -2
BITMAP
E0
60
60
60
60
60
60
60
60
60
60
60
F0
00
F8
ENDCHAR
STARTCHAR uni1E3C
ENCODING 7740
SWIDTH 584 0
DWIDTH 10 0
BBX 9 16 1 -3
BITMAP
F000
6000
6000
6000
6000
6000
6000
6000
6000
6000
6080
6080
FF80
0000
3C00
6600
ENDCHAR
STARTCHAR uni1E3D
ENCODING 7741
SWIDTH 325 0
DWIDTH 6 0
BBX 6 16 0 -3
BITMAP
70
30
30
30
30
30
30
30
30
30
30
30
78
00
78
CC
ENDCHAR
STARTCHAR uni1E3E
ENCODING 7742
SWIDTH 904 0
DWIDTH 15 0
BBX 14 16 1 0
BITMAP
01C0
0300
0000
F03C
7038
7838
5878
5858
4CD8
4C98
4698
4718
4718
4218
4018
E03C
ENDCHAR
STARTCHAR uni1E3F
ENCODING 7743
SWIDTH 967 0
DWIDTH 16 0
BBX 16 12 0 0
BITMAP
01C0
0300
0000
EF3C
71C6
6186
6186
6186
6186
6186
6186
F3CF
ENDCHAR
STARTCHAR uni1E40
ENCODING 7744
SWIDTH 904 0
DWIDTH 15 0
BBX 14 16 1 0
BITMAP
0300
0300
0000
F03C
7038
7838
5878
5858
4CD8
4C98
4698
4718
4718
4218
4018
E03C
ENDCHAR
STARTCHAR uni1E41
ENCODING 7745
SWIDTH 967 0
DWIDTH 16 0
BBX 16 12 0 0
BITMAP
0180
0180
0000
EF3C
71C6
6186
6186
6186
6186
6186
6186
F3CF
ENDCHAR
STARTCHAR uni1E42
ENCODING 7746
SWIDTH 904 0
DWIDTH 15 0
BBX 14 16 1 -3
BITMAP
F03C
7038
7838
5878
5858
4CD8
4C98
4698
4718
4718
4218
4018
E03C
0000
0180
0180
ENDCHAR
STARTCHAR uni1E43
ENCODING 7747
SWIDTH 967 0
DWIDTH 16 0
BBX 16 12 0 -3
BITMAP
EF3C
71C6
6186
6186
6186
6186
6186
6186
F3CF
0000
0180
0180
ENDCHAR
STARTCHAR uni1E44
ENCODING 7748
SWIDTH 788 0
DWIDTH 13 0
BBX 12 16 1 0
BITMAP
0C00
0C00
0000
E070
7020
7020
5820
5C20
4E20
4620
4320
43A0
41A0
40E0
4060
E060
ENDCHAR
STARTCHAR uni1E45
ENCODING 7749
SWIDTH 654 0
DWIDTH 11 0
BBX 10 12 1 0
BITMAP
0C00
0C00
0000
EF00
7180
6180
6180
6180
6180
6180
6180
F3C0
ENDCHAR
STARTCHAR uni1E46
ENCODING 7750
SWIDTH 788 0
DWIDTH 13 0
BBX 12 16 1 -3
BITMAP
E070
7020
7020
5820
5C20
4E20
4620
4320
43A0
41A0
40E0
4060
E060
0000
0600
0600
ENDCHAR
STARTCHAR uni1E47
ENCODING 7751
SWIDTH 654 0
DWIDTH 11 0
BBX 10 12 1 -3
BITMAP
EF00
7180
6180
6180
6180
6180
6180
6180
F3C0
0000
0C00
0C00
ENDCHAR
STARTCHAR uni1E48
ENCODING 7752
SWIDTH 788 0
DWIDTH 13 0
BBX 12 15 1 -2
BITMAP
E070
7020
7020
5820
5C20
4E20
4620
4320
43A0
41A0
40E0
4060
E060
0000
0F80
ENDCHAR
STARTCHAR uni1E49
ENCODING 7753
SWIDTH 654 0
DWIDTH 11 0
BBX 10 11 1 -2
BITMAP
EF00
7180
6180
6180
6180
6180
6180
6180
F3C0
0000
1F00
ENDCHAR
STARTCHAR uni1E4A
ENCODING 7754
SWIDTH 788 0
DWIDTH 13 0
BBX 12 16 1 -3
BITMAP
E070
7020
7020
5820
5C20
4E20
4620
4320
43A0
41A0
40E0
4060
E060
0000
0F00
1980
ENDCHAR
STARTCHAR uni1E4B
ENCODING 7755
SWIDTH 654 0
DWIDTH 11 0
BBX 10 12 1 -3
BITMAP
EF00
7180
6180
6180
6180
6180
6180
6180
F3C0
0000
1E00
3300
ENDCHAR
STARTCHAR uni1E4C
ENCODING 7756
SWIDTH 810 0
DWIDTH 14 0
BBX 12 19 1 0
BITMAP
0380
0600
0000
0E80
1700
0000
1F80
30C0
6060
6060
C030
C030
C030
C030
C030
6060
6060
30C0
1F80
ENDCHAR
STARTCHAR uni1E4D
ENCODING 7757
SWIDTH 617 0
DWIDTH 10 0
BBX 9 15 1 0
BITMAP
0E00
1800
0000
3A00
5C00
0000
3E00
6300
C180
C180
C180
C180
C180
6300
3E00
ENDCHAR
STARTCHAR uni1E4E
ENCODING 7758
SWIDTH 810 0
DWIDTH 14 0
BBX 12 18 1 0
BITMAP
0D80
0000
0E80
1700
0000
1F80
30C0
6060
6060
C030
C030
C030
C030
C030
6060
6060
30C0
1F80
ENDCHAR
STARTCHAR uni1E4F
ENCODING 7759
SWIDTH 617 0
DWIDTH 10 0
BBX 9 14 1 0
BITMAP
3600
0000
3A00
5C00
0000
3E00
6300
C180
C180
C180
C180
C180
6300
3E00
ENDCHAR
STARTCHAR uni1E50
ENCODING 7760
SWIDTH 810 0
DWIDTH 14 0
BBX 12 18 1 0
BITMAP
1C00
0600
0000
0F80
0000
1F80
30C0
6060
6060
C030
C030
C030
C030
C030
6060
6060
30C0
1F80
ENDCHAR
STARTCHAR uni1E51
ENCODING 7761
SWIDTH 617 0
DWIDTH 10 0
BBX 9 14 1 0
BITMAP
3800
0C00
0000
3E00
0000
3E00
6300
C180
C180
C180
C180
C180
6300
3E00
ENDCHAR
STARTCHAR uni1E52
ENCODING 7762
SWIDTH 810 0
DWIDTH 14 0
BBX 12 18 1 0
BITMAP
0380
0600
0000
0F80
0000
1F80
30C0
6060
6060
C030
C030
C030
C030
C030
6060
6060
30C0
1F80
ENDCHAR
STARTCHAR uni1E53
ENCODING 7763
SWIDTH 617 0
DWIDTH 10 0
BBX 9 14 1 0
BITMAP
0E00
1800
0000
3E00
0000
3E00
6300
C180
C180
C180
C180
C180
6300
3E00
ENDCHAR
STARTCHAR uni1E54
ENCODING 7764
SWIDTH 614 0
DWIDTH 10 0
BBX 9 16 1 0
BITMAP
0E00
1800
0000
FF00
6380
6180
6180
6180
6180
6300
7C00
6000
6000
6000
6000
F800
ENDCHAR
STARTCHAR uni1E55
ENCODING 7765
SWIDTH 652 0
DWIDTH 11 0
BBX 10 15 0 -3
BITMAP
0700
0C00
0000
EF00
7180
60C0
60C0
60C0
60C0
60C0
7180
6F00
6000
6000
F000
ENDCHAR
STARTCHAR uni1E56
ENCODING 7766
SWIDTH 614 0
DWIDTH 10 0
BBX 9 16 1 0
BITMAP
0C00
0C00
0000
FF00
6380
6180
6180
6180
6180
6300
7C00
6000
6000
6000
6000
F800
ENDCHAR
STARTCHAR uni1E57
ENCODING 7767
SWIDTH 652 0
DWIDTH 11 0
BBX 10 15 0 -3
BITMAP
0C00
0C00
0000
EF00
7180
60C0
60C0
60C0
60C0
60C0
7180
6F00
6000
6000
F000
ENDCHAR
STARTCHAR uni1E58
ENCODING 7768
SWIDTH 720 0
DWIDTH 12 0
BBX 11 16 1 0
BITMAP
0C00
0C00
0000
FF00
6380
6180
6180
6180
6300
7F00
6600
6700
6300
6380
6180
F0E0
ENDCHAR
STARTCHAR uni1E59
ENCODING 7769
SWIDTH 462 0
DWIDTH 8 0
BBX 6 12 1 0
BITMAP
30
30
00
EC
74
64
60
60
60
60
60
F8
ENDCHAR
STARTCHAR uni1E5A
ENCODING 7770
SWIDTH 720 0
DWIDTH 12 0
BBX 11 16 1 -3
BITMAP
FF00
6380
6180
6180
6180
6300
7F00
6600
6700
6300
6380
6180
F0E0
0000
0C00
0C00
ENDCHAR
STARTCHAR uni1E5B
ENCODING 7771
SWIDTH 462 0
DWIDTH 8 0
BBX 6 12 1 -3
BITMAP
EC
74
64
60
60
60
60
60
F8
00
30
30
ENDCHAR
STARTCHAR uni1E5C
ENCODING 7772
SWIDTH 720 0
DWIDTH 12 0
BBX 11 18 1 -3
BITMAP
3E00
0000
FF00
6380
6180
6180
6180
6300
7F00
6600
6700
6300
6380
6180
F0E0
0000
0C00
0C00
ENDCHAR
STARTCHAR uni1E5D
ENCODING 7773
SWIDTH 462 0
DWIDTH 8 0
BBX 6 14 1 -3
BITMAP
F8
00
EC
74
64
60
60
60
60
60
F8
00
30
30
ENDCHAR
STARTCHAR uni1E5E
ENCODING 7774
SWIDTH 720 0
DWIDTH 12 0
BBX 11 15 1 -2
BITMAP
FF00
6380
6180
6180
6180
6300
7F00
6600
6700
6300
6380
6180
F0E0
0000
1F00
ENDCHAR
STARTCHAR uni1E5F
ENCODING 7775
SWIDTH 462 0
DWIDTH 8 0
BBX 6 11 1 -2
BITMAP
EC
74
64
60
60
60
60
60
F8
00
F8
ENDCHAR
STARTCHAR uni1E60
ENCODING 7776
SWIDTH 556 0
DWIDTH 9 0
BBX 8 16 1 0
BITMAP
18
18
00
3E
62
C2
C0
E0
78
3C
0E
03
03
83
C6
FC
ENDCHAR
STARTCHAR uni1E61
ENCODING 7777
SWIDTH 525 0
DWIDTH 9 0
BBX 7 12 1 0
BITMAP
30
30
00
7C
C4
C4
F0
7C
1E
86
86
FC
ENDCHAR
STARTCHAR uni1E62
ENCODING 7778
SWIDTH 556 0
DWIDTH 9 0
BBX 8 16 1 -3
BITMAP
3E
62
C2
C0
E0
78
3C
0E
03
03
83
C6
FC
00
18
18
ENDCHAR
STARTCHAR uni1E63
ENCODING 7779
SWIDTH 525 0
DWIDTH 9 0
BBX 7 12 1 -3
BITMAP
7C
C4
C4
F0
7C
1E
86
86
FC
00
18
18
ENDCHAR
STARTCHAR uni1E64
ENCODING 7780
SWIDTH 556 0
DWIDTH 9 0
BBX 8 19 1 0
BITMAP
18
18
00
1C
30
00
3E
62
C2
C0
E0
78
3C
0E
03
03
83
C6
FC
ENDCHAR
STARTCHAR uni1E65
ENCODING 7781
SWIDTH 525 0
DWIDTH 9 0
BBX 7 15 1 0
BITMAP
18
18
00
1C
30
00
7C
C4
C4
F0
7C
1E
86
86
FC
ENDCHAR
STARTCHAR uni1E66
ENCODING 7782
SWIDTH 556 0
DWIDTH 9 0
BBX 8 19 1 0
BITMAP
18
18
00
66
3C
00
3E
62
C2
C0
E0
78
3C
0E
03
03
83
C6
FC
ENDCHAR
STARTCHAR uni1E67
ENCODING 7783
SWIDTH 525 0
DWIDTH 9 0
BBX 7 15 1 0
BITMAP
30
30
00
CC
78
00
7C
C4
C4
F0
7C
1E
86
86
FC
ENDCHAR
STARTCHAR uni1E68
ENCODING 7784
SWIDTH 556 0
DWIDTH 9 0
BBX 8 19 1 -3
BITMAP
30
30
00
3E
62
C2
C0
E0
78
3C
0E
03
03
83
C6
FC
00
18
18
ENDCHAR
STARTCHAR uni1E69
ENCODING 7785
SWIDTH 525 0
DWIDTH 9 0
BBX 7 15 1 -3
BITMAP
30
30
00
7C
C4
C4
F0
7C
1E
86
86
FC
00
18
18
ENDCHAR
STARTCHAR uni1E6A
ENCODING 7786
SWIDTH 714 0
DWIDTH 12 0
BBX 10 16 1 0
BITMAP
0C00
0C00
0000
FFC0
8C40
0C00
0C00
0C00
0C00
0C00
0C00
0C00
0C00
0C00
0C00
3F00
ENDCHAR
STARTCHAR uni1E6B
ENCODING 7787
SWIDTH 389 0
DWIDTH 7 0
BBX 5 15 1 0
BITMAP
60
60
00
60
60
60
F8
60
60
60
60
60
60
60
38
ENDCHAR
STARTCHAR uni1E6C
ENCODING 7788
SWIDTH 714 0
DWIDTH 12 0
BBX 10 16 1 -3
BITMAP
FFC0
8C40
0C00
0C00
0C00
0C00
0C00
0C00
0C00
0C00
0C00
0C00
3F00
0000
0C00
0C00
ENDCHAR
STARTCHAR uni1E6D
ENCODING 7789
SWIDTH 389 0
DWIDTH 7 0
BBX 5 15 1 -3
BITMAP
60
60
60
F8
60
60
60
60
60
60
60
38
00
30
30
ENDCHAR
STARTCHAR uni1E6E
ENCODING 7790
SWIDTH 714 0
DWIDTH 12 0
BBX 10 15 1 -2
BITMAP
FFC0
8C40
0C00
0C00
0C00
0C00
0C00
0C00
0C00
0C00
0C00
0C00
3F00
0000
1F00
ENDCHAR
STARTCHAR uni1E6F
ENCODING 7791
SWIDTH 389 0
DWIDTH 7 0
BBX 5 14 1 -2
BITMAP
60
60
60
F8
60
60
60
60
60
60
60
38
00
F8
ENDCHAR
STARTCHAR uni1E70
ENCODING 7792
SWIDTH 714 0
DWIDTH 12 0
BBX 10 16 1 -3
BITMAP
FFC0
8C40
0C00
0C00
0C00
0C00
0C00
0C00
0C00
0C00
0C00
0C00
3F00
0000
1E00
3300
ENDCHAR
STARTCHAR uni1E71
ENCODING 7793
SWIDTH 389 0
DWIDTH 7 0
BBX 6 15 1 -3
BITMAP
60
60
60
F8
60
60
60
60
60
60
60
38
00
78
CC
ENDCHAR
STARTCHAR uni1E72
ENCODING 7794
SWIDTH 747 0
DWIDTH 13 0
BBX 12 15 0 -2
BITMAP
F070
6020
6020
6020
6020
6020
6020
6020
6020
6020
6020
3040
1F80
0000
1B00
ENDCHAR
STARTCHAR uni1E73
ENCODING 7795
SWIDTH 654 0
DWIDTH 11 0
BBX 10 11 0 -2
BITMAP
E380
6180
6180
6180
6180
6180
6180
6380
3DC0
0000
1B00
ENDCHAR
STARTCHAR uni1E74
ENCODING 7796
SWIDTH 747 0
DWIDTH 13 0
BBX 12 16 0 -3
BITMAP
F070
6020
6020
6020
6020
6020
6020
6020
6020
6020
6020
3040
1F80
0000
1D00
2E00
ENDCHAR
STARTCHAR uni1E75
ENCODING 7797
SWIDTH 654 0
DWIDTH 11 0
BBX 10 12 0 -3
BITMAP
E380
6180
6180
6180
6180
6180
6180
6380
3DC0
0000
1D00
2E00
ENDCHAR
STARTCHAR uni1E76
ENCODING 7798
SWIDTH 747 0
DWIDTH 13 0
BBX 12 16 0 -3
BITMAP
F070
6020
6020
6020
6020
6020
6020
6020
6020
6020
6020
3040
1F80
0000
0F00
1980
ENDCHAR
STARTCHAR uni1E77
ENCODING 7799
SWIDTH 654 0
DWIDTH 11 0
BBX 10 12 0 -3
BITMAP
E380
6180
6180
6180
6180
6180
6180
6380
3DC0
0000
1E00
3300
ENDCHAR
STARTCHAR uni1E78
ENCODING 7800
SWIDTH 747 0
DWIDTH 13 0
BBX 12 19 0 0
BITMAP
0700
0C00
0000
0E80
1700
0000
F070
6020
6020
6020
6020
6020
6020
6020
6020
6020
6020
3040
1F80
ENDCHAR
STARTCHAR uni1E79
ENCODING 7801
SWIDTH 654 0
DWIDTH 11 0
BBX 10 15 0 0
BITMAP
0700
0C00
0000
1D00
2E00
0000
E380
6180
6180
6180
6180
6180
6180
6380
3DC0
ENDCHAR
STARTCHAR uni1E7A
ENCODING 7802
SWIDTH 747 0
DWIDTH 13 0
BBX 12 17 0 0
BITMAP
1B00
0000
1F00
0000
F070
6020
6020
6020
6020
6020
6020
6020
6020
6020
6020
3040
1F80
ENDCHAR
STARTCHAR uni1E7B
ENCODING 7803
SWIDTH 654 0
DWIDTH 11 0
BBX 10 13 0 0
BITMAP
3600
0000
3E00
0000
E380
6180
6180
6180
6180
6180
6180
6380
3DC0
ENDCHAR
STARTCHAR uni1E7C
ENCODING 7804
SWIDTH 753 0
DWIDTH 13 0
BBX 13 16 0 0
BITMAP
0E80
1700
0000
F878
7010
3020
3820
1860
1C40
0C40
0C80
0680
0780
0700
0300
0200
ENDCHAR
STARTCHAR uni1E7D
ENCODING 7805
SWIDTH 657 0
DWIDTH 11 0
BBX 11 12 0 0
BITMAP
1D00
2E00
0000
F8E0
7040
3080
1880
1900
0D00
0E00
0600
0400
ENDCHAR
STARTCHAR uni1E7E
ENCODING 7806
SWIDTH 753 0
DWIDTH 13 0
BBX 13 16 0 -3
BITMAP
F878
7010
3020
3820
1860
1C40
0C40
0C80
0680
0780
0700
0300
0200
0000
0300
0300
ENDCHAR
STARTCHAR uni1E7F
ENCODING 7807
SWIDTH 657 0
DWIDTH 11 0
BBX 11 12 0 -3
BITMAP
F8E0
7040
3080
1880
1900
0D00
0E00
0600
0400
0000
0600
0600
ENDCHAR
STARTCHAR Wgrave
ENCODING 7808
SWIDTH 955 0
DWIDTH 16 0
BBX 16 16 0 0
BITMAP
0700
0180
0000
F887
7082
31C4
31C4
31C4
3AC4
1A68
1A68
1C68
1C30
0C30
0C30
0830
ENDCHAR
STARTCHAR wgrave
ENCODING 7809
SWIDTH 880 0
DWIDTH 15 0
BBX 15 12 0 0
BITMAP
0E00
0300
0000
F98E
7184
31C8
32C8
3AD8
1C70
1C70
0C60
0820
ENDCHAR
STARTCHAR Wacute
ENCODING 7810
SWIDTH 955 0
DWIDTH 16 0
BBX 16 16 0 0
BITMAP
01C0
0300
0000
F887
7082
31C4
31C4
31C4
3AC4
1A68
1A68
1C68
1C30
0C30
0C30
0830
ENDCHAR
STARTCHAR wacute
ENCODING 7811
SWIDTH 880 0
DWIDTH 15 0
BBX 15 12 0 0
BITMAP
01C0
0300
0000
F98E
7184
31C8
32C8
3AD8
1C70
1C70
0C60
0820
ENDCHAR
STARTCHAR Wdieresis
ENCODING 7812
SWIDTH 955 0
DWIDTH 16 0
BBX 16 15 0 0
BITMAP
06C0
0000
F887
7082
31C4
31C4
31C4
3AC4
1A68
1A68
1C68
1C30
0C30
0C30
0830
ENDCHAR
STARTCHAR wdieresis
ENCODING 7813
SWIDTH 880 0
DWIDTH 15 0
BBX 15 11 0 0
BITMAP
06C0
0000
F98E
7184
31C8
32C8
3AD8
1C70
1C70
0C60
0820
ENDCHAR
STARTCHAR uni1E86
ENCODING 7814
SWIDTH 955 0
DWIDTH 16 0
BBX 16 16 0 0
BITMAP
0300
0300
0000
F887
7082
31C4
31C4
31C4
3AC4
1A68
1A68
1C68
1C30
0C30
0C30
0830
ENDCHAR
STARTCHAR uni1E87
ENCODING 7815
SWIDTH 880 0
DWIDTH 15 0
BBX 15 12 0 0
BITMAP
0300
0300
0000
F98E
7184
31C8
32C8
3AD8
1C70
1C70
0C60
0820
ENDCHAR
STARTCHAR uni1E88
ENCODING 7816
SWIDTH 955 0
DWIDTH 16 0
BBX 16 16 0 -3
BITMAP
F887
7082
31C4
31C4
31C4
3AC4
1A68
1A68
1C68
1C30
0C30
0C30
0830
0000
0180
0180
ENDCHAR
STARTCHAR uni1E89
ENCODING 7817
SWIDTH 880 0
DWIDTH 15 0
BBX 15 12 0 -3
BITMAP
F98E
7184
31C8
32C8
3AD8
1C70
1C70
0C60
0820
0000
0180
0180
ENDCHAR
STARTCHAR uni1E8A
ENCODING 7818
SWIDTH 702 0
DWIDTH 12 0
BBX 12 16 0 0
BITMAP
0600
0600
0000
FC70
3860
1840
1880
0D80
0F00
0600
0B00
1380
1180
21C0
60E0
F1F0
ENDCHAR
STARTCHAR uni1E8B
ENCODING 7819
SWIDTH 608 0
DWIDTH 10 0
BBX 10 12 0 0
BITMAP
0C00
0C00
0000
FBC0
7180
3B00
1E00
0C00
1600
3700
6380
E7C0
ENDCHAR
STARTCHAR uni1E8C
ENCODING 7820
SWIDTH 702 0
DWIDTH 12 0
BBX 12 15 0 0
BITMAP
1B00
0000
FC70
3860
1840
1880
0D80
0F00
0600
0B00
1380
1180
21C0
60E0
F1F0
ENDCHAR
STARTCHAR uni1E8D
ENCODING 7821
SWIDTH 608 0
DWIDTH 10 0
BBX 10 11 0 0
BITMAP
3600
0000
FBC0
7180
3B00
1E00
0C00
1600
3700
6380
E7C0
ENDCHAR
STARTCHAR uni1E8E
ENCODING 7822
SWIDTH 717 0
DWIDTH 12 0
BBX 12 16 0 0
BITMAP
0600
0600
0000
FCF0
7020
3840
18C0
0C80
0D00
0700
0600
0600
0600
0600
0600
0F00
ENDCHAR
STARTCHAR uni1E8F
ENCODING 7823
SWIDTH 654 0
DWIDTH 11 0
BBX 11 15 0 -3
BITMAP
0C00
0C00
0000
F8E0
7040
3080
1880
1900
1F00
0E00
0C00
0400
0800
1800
3000
ENDCHAR
STARTCHAR uni1E90
ENCODING 7824
SWIDTH 639 0
DWIDTH 11 0
BBX 9 16 1 0
BITMAP
1E00
3300
0000
FF80
C300
8300
0600
0E00
0C00
1C00
1800
3800
3000
6080
6080
FF80
ENDCHAR
STARTCHAR uni1E91
ENCODING 7825
SWIDTH 584 0
DWIDTH 10 0
BBX 8 12 1 0
BITMAP
3C
66
00
FF
86
0E
1C
18
30
70
61
FF
ENDCHAR
STARTCHAR uni1E92
ENCODING 7826
SWIDTH 639 0
DWIDTH 11 0
BBX 9 16 1 -3
BITMAP
FF80
C300
8300
0600
0E00
0C00
1C00
1800
3800
3000
6080
6080
FF80
0000
1800
1800
ENDCHAR
STARTCHAR uni1E93
ENCODING 7827
SWIDTH 584 0
DWIDTH 10 0
BBX 8 12 1 -3
BITMAP
FF
86
0E
1C
18
30
70
61
FF
00
18
18
ENDCHAR
STARTCHAR uni1E94
ENCODING 7828
SWIDTH 639 0
DWIDTH 11 0
BBX 9 15 1 -2
BITMAP
FF80
C300
8300
0600
0E00
0C00
1C00
1800
3800
3000
6080
6080
FF80
0000
3E00
ENDCHAR
STARTCHAR uni1E95
ENCODING 7829
SWIDTH 584 0
DWIDTH 10 0
BBX 8 11 1 -2
BITMAP
FF
86
0E
1C
18
30
70
61
FF
00
7C
ENDCHAR
STARTCHAR uni1E96
ENCODING 7830
SWIDTH 654 0
DWIDTH 11 0
BBX 10 15 1 -2
BITMAP
E000
6000
6000
6000
6F00
7180
6180
6180
6180
6180
6180
6180
F3C0
0000
1F00
ENDCHAR
STARTCHAR uni1E97
ENCODING 7831
SWIDTH 389 0
DWIDTH 7 0
BBX 5 14 1 0
BITMAP
D8
00
60
60
60
F8
60
60
60
60
60
60
60
38
ENDCHAR
STARTCHAR uni1E98
ENCODING 7832
SWIDTH 880 0
DWIDTH 15 0
BBX 15 12 0 0
BITMAP
0380
0380
0000
F98E
7184
31C8
32C8
3AD8
1C70
1C70
0C60
0820
ENDCHAR
STARTCHAR uni1E99
ENCODING 7833
SWIDTH 654 0
DWIDTH 11 0
BBX 11 15 0 -3
BITMAP
0E00
0E00
0000
F8E0
7040
3080
1880
1900
1F00
0E00
0C00
0400
0800
1800
3000
ENDCHAR
STARTCHAR uni1EA0
ENCODING 7840
SWIDTH 795 0
DWIDTH 14 0
BBX 14 16 0 -3
BITMAP
0200
0300
0700
0580
0D80
09C0
08C0
10E0
1FE0
2070
2030
4038
E07C
0000
0180
0180
ENDCHAR
STARTCHAR uni1EA1
ENCODING 7841
SWIDTH 556 0
DWIDTH 9 0
BBX 8 12 1 -3
BITMAP
7C
46
46
06
7E
E6
C6
C6
7F
00
18
18
ENDCHAR
STARTCHAR uni1EA4
ENCODING 7844
SWIDTH 795 0
DWIDTH 14 0
BBX 14 19 0 0
BITMAP
01C0
0300
0000
0780
0CC0
0000
0200
0300
0700
0580
0D80
09C0
08C0
10E0
1FE0
2070
2030
4038
E07C
ENDCHAR
STARTCHAR uni1EA5
ENCODING 7845
SWIDTH 556 0
DWIDTH 9 0
BBX 8 15 1 0
BITMAP
0E
18
00
3C
66
00
7C
46
46
06
7E
E6
C6
C6
7F
ENDCHAR
STARTCHAR uni1EA6
ENCODING 7846
SWIDTH 795 0
DWIDTH 14 0
BBX 14 19 0 0
BITMAP
0E00
0300
0000
0780
0CC0
0000
0200
0300
0700
0580
0D80
09C0
08C0
10E0
1FE0
2070
2030
4038
E07C
ENDCHAR
STARTCHAR uni1EA7
ENCODING 7847
SWIDTH 556 0
DWIDTH 9 0
BBX 8 15 1 0
BITMAP
70
18
00
3C
66
00
7C
46
46
06
7E
E6
C6
C6
7F
ENDCHAR
STARTCHAR uni1EAA
ENCODING 7850
SWIDTH 795 0
DWIDTH 14 0
BBX 14 19 0 0
BITMAP
0740
0B80
0000
0780
0CC0
0000
0200
0300
0700
0580
0D80
09C0
08C0
10E0
1FE0
2070
2030
4038
E07C
ENDCHAR
STARTCHAR uni1EAB
ENCODING 7851
SWIDTH 556 0
DWIDTH 9 0
BBX 8 15 1 0
BITMAP
3A
5C
00
3C
66
00
7C
46
46
06
7E
E6
C6
C6
7F
ENDCHAR
STARTCHAR uni1EAC
ENCODING 7852
SWIDTH 795 0
DWIDTH 14 0
BBX 14 19 0 -3
BITMAP
0780
0CC0
0000
0200
0300
0700
0580
0D80
09C0
08C0
10E0
1FE0
2070
2030
4038
E07C
0000
0180
0180
ENDCHAR
STARTCHAR uni1EAD
ENCODING 7853
SWIDTH 556 0
DWIDTH 9 0
BBX 8 15 1 -3
BITMAP
3C
66
00
7C
46
46
06
7E
E6
C6
C6
7F
00
18
18
ENDCHAR
STARTCHAR uni1EAE
ENCODING 7854
SWIDTH 795 0
DWIDTH 14 0
BBX 14 19 0 0
BITMAP
01C0
0300
0000
0840
0780
0000
0200
0300
0700
0580
0D80
09C0
08C0
10E0
1FE0
2070
2030
4038
E07C
ENDCHAR
STARTCHAR uni1EAF
ENCODING 7855
SWIDTH 556 0
DWIDTH 9 0
BBX 8 15 1 0
BITMAP
0E
18
00
42
3C
00
7C
46
46
06
7E
E6
C6
C6
7F
ENDCHAR
STARTCHAR uni1EB0
ENCODING 7856
SWIDTH 795 0
DWIDTH 14 0
BBX 14 19 0 0
BITMAP
0E00
0300
0000
0840
0780
0000
0200
0300
0700
0580
0D80
09C0
08C0
10E0
1FE0
2070
2030
4038
E07C
ENDCHAR
STARTCHAR uni1EB1
ENCODING 7857
SWIDTH 556 0
DWIDTH 9 0
BBX 8 15 1 0
BITMAP
70
18
00
42
3C
00
7C
46
46
06
7E
E6
C6
C6
7F
ENDCHAR
STARTCHAR uni1EB4
ENCODING 7860
SWIDTH 795 0
DWIDTH 14 0
BBX 14 19 0 0
BITMAP
0740
0B80
0000
0840
0780
0000
0200
0300
0700
0580
0D80
09C0
08C0
10E0
1FE0
2070
2030
4038
E07C
ENDCHAR
STARTCHAR uni1EB5
ENCODING 7861
SWIDTH 556 0
DWIDTH 9 0
BBX 8 15 1 0
BITMAP
3A
5C
00
42
3C
00
7C
46
46
06
7E
E6
C6
C6
7F
ENDCHAR
STARTCHAR uni1EB6
ENCODING 7862
SWIDTH 795 0
DWIDTH 14 0
BBX 14 19 0 -3
BITMAP
0840
0780
0000
0200
0300
0700
0580
0D80
09C0
08C0
10E0
1FE0
2070
2030
4038
E07C
0000
0180
0180
ENDCHAR
STARTCHAR uni1EB7
ENCODING 7863
SWIDTH 556 0
DWIDTH 9 0
BBX 8 15 1 -3
BITMAP
42
3C
00
7C
46
46
06
7E
E6
C6
C6
7F
00
18
18
ENDCHAR
STARTCHAR uni1EB8
ENCODING 7864
SWIDTH 601 0
DWIDTH 10 0
BBX 9 16 1 -3
BITMAP
FF00
6100
6000
6000
6000
6200
7E00
6200
6000
6000
6000
6080
FF80
0000
1800
1800
ENDCHAR
STARTCHAR uni1EB9
ENCODING 7865
SWIDTH 568 0
DWIDTH 10 0
BBX 8 12 1 -3
BITMAP
3C
62
C3
C3
FF
C0
C0
61
3F
00
18
18
ENDCHAR
STARTCHAR uni1EBC
ENCODING 7868
SWIDTH 601 0
DWIDTH 10 0
BBX 9 16 1 0
BITMAP
3A00
5C00
0000
FF00
6100
6000
6000
6000
6200
7E00
6200
6000
6000
6000
6080
FF80
ENDCHAR
STARTCHAR uni1EBD
ENCODING 7869
SWIDTH 568 0
DWIDTH 10 0
BBX 8 12 1 0
BITMAP
3A
5C
00
3C
62
C3
C3
FF
C0
C0
61
3F
ENDCHAR
STARTCHAR uni1EBE
ENCODING 7870
SWIDTH 601 0
DWIDTH 10 0
BBX 9 19 1 0
BITMAP
0E00
1800
0000
1E00
3300
0000
FF00
6100
6000
6000
6000
6200
7E00
6200
6000
6000
6000
6080
FF80
ENDCHAR
STARTCHAR uni1EBF
ENCODING 7871
SWIDTH 568 0
DWIDTH 10 0
BBX 8 15 1 0
BITMAP
0E
18
00
3C
66
00
3C
62
C3
C3
FF
C0
C0
61
3F
ENDCHAR
STARTCHAR uni1EC0
ENCODING 7872
SWIDTH 601 0
DWIDTH 10 0
BBX 9 19 1 0
BITMAP
3800
0C00
0000
1E00
3300
0000
FF00
6100
6000
6000
6000
6200
7E00
6200
6000
6000
6000
6080
FF80
ENDCHAR
STARTCHAR uni1EC1
ENCODING 7873
SWIDTH 568 0
DWIDTH 10 0
BBX 8 15 1 0
BITMAP
70
18
00
3C
66
00
3C
62
C3
C3
FF
C0
C0
61
3F
ENDCHAR
STARTCHAR uni1EC4
ENCODING 7876
SWIDTH 601 0
DWIDTH 10 0
BBX 9 19 1 0
BITMAP
1D00
2E00
0000
1E00
3300
0000
FF00
6100
6000
6000
6000
6200
7E00
6200
6000
6000
6000
6080
FF80
ENDCHAR
STARTCHAR uni1EC5
ENCODING 7877
SWIDTH 568 0
DWIDTH 10 0
BBX 8 15 1 0
BITMAP
3A
5C
00
3C
66
00
3C
62
C3
C3
FF
C0
C0
61
3F
ENDCHAR
STARTCHAR uni1EC6
ENCODING 7878
SWIDTH 601 0
DWIDTH 10 0
BBX 9 19 1 -3
BITMAP
3C00
6600
0000
FF00
6100
6000
6000
6000
6200
7E00
6200
6000
6000
6000
6080
FF80
0000
1800
1800
ENDCHAR
STARTCHAR uni1EC7
ENCODING 7879
SWIDTH 568 0
DWIDTH 10 0
BBX 8 15 1 -3
BITMAP
3C
66
00
3C
62
C3
C3
FF
C0
C0
61
3F
00
18
18
ENDCHAR
STARTCHAR uni1ECA
ENCODING 7882
SWIDTH 349 0
DWIDTH 6 0
BBX 4 16 1 -3
BITMAP
F0
60
60
60
60
60
60
60
60
60
60
60
F0
00
60
60
ENDCHAR
STARTCHAR uni1ECB
ENCODING 7883
SWIDTH 325 0
DWIDTH 6 0
BBX 4 16 1 -3
BITMAP
60
60
00
00
E0
60
60
60
60
60
60
60
F0
00
60
60
ENDCHAR
STARTCHAR uni1ECC
ENCODING 7884
SWIDTH 810 0
DWIDTH 14 0
BBX 12 16 1 -3
BITMAP
1F80
30C0
6060
6060
C030
C030
C030
C030
C030
6060
6060
30C0
1F80
0000
0600
0600
ENDCHAR
STARTCHAR uni1ECD
ENCODING 7885
SWIDTH 617 0
DWIDTH 10 0
BBX 9 12 1 -3
BITMAP
3E00
6300
C180
C180
C180
C180
C180
6300
3E00
0000
0C00
0C00
ENDCHAR
STARTCHAR uni1ED0
ENCODING 7888
SWIDTH 810 0
DWIDTH 14 0
BBX 12 19 1 0
BITMAP
0380
0600
0000
0F00
1980
0000
1F80
30C0
6060
6060
C030
C030
C030
C030
C030
6060
6060
30C0
1F80
ENDCHAR
STARTCHAR uni1ED1
ENCODING 7889
SWIDTH 617 0
DWIDTH 10 0
BBX 9 15 1 0
BITMAP
0E00
1800
0000
3C00
6600
0000
3E00
6300
C180
C180
C180
C180
C180
6300
3E00
ENDCHAR
STARTCHAR uni1ED2
ENCODING 7890
SWIDTH 810 0
DWIDTH 14 0
BBX 12 19 1 0
BITMAP
1C00
0600
0000
0F00
1980
0000
1F80
30C0
6060
6060
C030
C030
C030
C030
C030
6060
6060
30C0
1F80
ENDCHAR
STARTCHAR uni1ED3
ENCODING 7891
SWIDTH 617 0
DWIDTH 10 0
BBX 9 15 1 0
BITMAP
3800
0C00
0000
3C00
6600
0000
3E00
6300
C180
C180
C180
C180
C180
6300
3E00
ENDCHAR
STARTCHAR uni1ED6
ENCODING 7894
SWIDTH 810 0
DWIDTH 14 0
BBX 12 19 1 0
BITMAP
0E80
1700
0000
0F00
1980
0000
1F80
30C0
6060
6060
C030
C030
C030
C030
C030
6060
6060
30C0
1F80
ENDCHAR
STARTCHAR uni1ED7
ENCODING 7895
SWIDTH 617 0
DWIDTH 10 0
BBX 9 15 1 0
BITMAP
3A00
5C00
0000
3C00
6600
0000
3E00
6300
C180
C180
C180
C180
C180
6300
3E00
ENDCHAR
STARTCHAR uni1ED8
ENCODING 7896
SWIDTH 810 0
DWIDTH 14 0
BBX 12 19 1 -3
BITMAP
0F00
1980
0000
1F80
30C0
6060
6060
C030
C030
C030
C030
C030
6060
6060
30C0
1F80
0000
0600
0600
ENDCHAR
STARTCHAR uni1ED9
ENCODING 7897
SWIDTH 617 0
DWIDTH 10 0
BBX 9 15 1 -3
BITMAP
1E00
3300
0000
3E00
6300
C180
C180
C180
C180
C180
6300
3E00
0000
0C00
0C00
ENDCHAR
STARTCHAR uni1EDA
ENCODING 7898
SWIDTH 810 0
DWIDTH 14 0
BBX 14 16 1 0
BITMAP
01C0
0300
0000
1F9C
30DC
6064
6064
C038
C030
C030
C030
C030
6060
6060
30C0
1F80
ENDCHAR
STARTCHAR uni1EDB
ENCODING 7899
SWIDTH 617 0
DWIDTH 10 0
BBX 11 12 1 0
BITMAP
0380
0600
0000
3EE0
63E0
C1A0
C1A0
C1C0
C180
C180
6300
3E00
ENDCHAR
STARTCHAR uni1EDC
ENCODING 7900
SWIDTH 810 0
DWIDTH 14 0
BBX 14 16 1 0
BITMAP
0700
0180
0000
1F9C
30DC
6064
6064
C038
C030
C030
C030
C030
6060
6060
30C0
1F80
ENDCHAR
STARTCHAR uni1EDD
ENCODING 7901
SWIDTH 617 0
DWIDTH 10 0
BBX 11 12 1 0
BITMAP
1C00
0600
0000
3EE0
63E0
C1A0
C1A0
C1C0
C180
C180
6300
3E00
ENDCHAR
STARTCHAR uni1EE0
ENCODING 7904
SWIDTH 810 0
DWIDTH 14 0
BBX 14 16 1 0
BITMAP
03A0
05C0
0000
1F9C
30DC
6064
6064
C038
C030
C030
C030
C030
6060
6060
30C0
1F80
ENDCHAR
STARTCHAR uni1EE1
ENCODING 7905
SWIDTH 617 0
DWIDTH 10 0
BBX 11 12 1 0
BITMAP
0E80
1700
0000
3EE0
63E0
C1A0
C1A0
C1C0
C180
C180
6300
3E00
ENDCHAR
STARTCHAR uni1EE2
ENCODING 7906
SWIDTH 810 0
DWIDTH 14 0
BBX 14 16 1 -3
BITMAP
1F9C
30DC
6064
6064
C038
C030
C030
C030
C030
6060
6060
30C0
1F80
0000
0600
0600
ENDCHAR
STARTCHAR uni1EE3
ENCODING 7907
SWIDTH 617 0
DWIDTH 10 0
BBX 11 12 1 -3
BITMAP
3EE0
63E0
C1A0
C1A0
C1C0
C180
C180
6300
3E00
0000
0C00
0C00
ENDCHAR
STARTCHAR uni1EE4
ENCODING 7908
SWIDTH 747 0
DWIDTH 13 0
BBX 12 16 0 -3
BITMAP
F070
6020
6020
6020
6020
6020
6020
6020
6020
6020
6020
3040
1F80
0000
0600
0600
ENDCHAR
STARTCHAR uni1EE5
ENCODING 7909
SWIDTH 654 0
DWIDTH 11 0
BBX 10 12 0 -3
BITMAP
E380
6180
6180
6180
6180
6180
6180
6380
3DC0
0000
0C00
0C00
ENDCHAR
STARTCHAR uni1EE8
ENCODING 7912
SWIDTH 747 0
DWIDTH 13 0
BBX 14 16 0 0
BITMAP
01C0
0300
0000
F07C
603C
6024
6024
6038
6020
6020
6020
6020
6020
6020
3040
1F80
ENDCHAR
STARTCHAR uni1EE9
ENCODING 7913
SWIDTH 654 0
DWIDTH 11 0
BBX 12 12 0 0
BITMAP
0380
0600
0000
E3F0
61F0
6190
6190
61E0
6180
6180
6380
3DC0
ENDCHAR
STARTCHAR uni1EEA
ENCODING 7914
SWIDTH 747 0
DWIDTH 13 0
BBX 14 16 0 0
BITMAP
0700
0180
0000
F07C
603C
6024
6024
6038
6020
6020
6020
6020
6020
6020
3040
1F80
ENDCHAR
STARTCHAR uni1EEB
ENCODING 7915
SWIDTH 654 0
DWIDTH 11 0
BBX 12 12 0 0
BITMAP
0E00
0300
0000
E3F0
61F0
6190
6190
61E0
6180
6180
6380
3DC0
ENDCHAR
STARTCHAR uni1EEE
ENCODING 7918
SWIDTH 747 0
DWIDTH 13 0
BBX 14 16 0 0
BITMAP
03A0
05C0
0000
F07C
603C
6024
6024
6038
6020
6020
6020
6020
6020
6020
3040
1F80
ENDCHAR
STARTCHAR uni1EEF
ENCODING 7919
SWIDTH 654 0
DWIDTH 11 0
BBX 12 12 0 0
BITMAP
0740
0B80
0000
E3F0
61F0
6190
6190
61E0
6180
6180
6380
3DC0
ENDCHAR
STARTCHAR uni1EF0
ENCODING 7920
SWIDTH 747 0
DWIDTH 13 0
BBX 14 16 0 -3
BITMAP
F07C
603C
6024
6024
6038
6020
6020
6020
6020
6020
6020
3040
1F80
0000
0600
0600
ENDCHAR
STARTCHAR uni1EF1
ENCODING 7921
SWIDTH 654 0
DWIDTH 11 0
BBX 12 12 0 -3
BITMAP
E3F0
61F0
6190
6190
61E0
6180
6180
6380
3DC0
0000
0600
0600
ENDCHAR
STARTCHAR Ygrave
ENCODING 7922
SWIDTH 717 0
DWIDTH 12 0
BBX 12 16 0 0
BITMAP
1C00
0600
0000
FCF0
7020
3840
18C0
0C80
0D00
0700
0600
0600
0600
0600
0600
0F00
ENDCHAR
STARTCHAR ygrave
ENCODING 7923
SWIDTH 654 0
DWIDTH 11 0
BBX 11 15 0 -3
BITMAP
3800
0C00
0000
F8E0
7040
3080
1880
1900
1F00
0E00
0C00
0400
0800
1800
3000
ENDCHAR
STARTCHAR uni1EF4
ENCODING 7924
SWIDTH 717 0
DWIDTH 12 0
BBX 12 16 0 -3
BITMAP
FCF0
7020
3840
18C0
0C80
0D00
0700
0600
0600
0600
0600
0600
0F00
0000
0600
0600
ENDCHAR
STARTCHAR uni1EF5
ENCODING 7925
SWIDTH 654 0
DWIDTH 11 0
BBX 11 15 0 -6
BITMAP
F8E0
7040
3080
1880
1900
1F00
0E00
0C00
0400
0800
1800
3000
0000
0C00
0C00
ENDCHAR
STARTCHAR uni1EF8
ENCODING 7928
SWIDTH 717 0
DWIDTH 12 0
BBX 12 16 0 0
BITMAP
0E80
1700
0000
FCF0
7020
3840
18C0
0C80
0D00
0700
0600
0600
0600
0600
0600
0F00
ENDCHAR
STARTCHAR uni1EF9
ENCODING 7929
SWIDTH 654 0
DWIDTH 11 0
BBX 11 15 0 -3
BITMAP
1D00
2E00
0000
F8E0
7040
3080
1880
1900
1F00
0E00
0C00
0400
0800
1800
3000
ENDCHAR
STARTCHAR uni2000
ENCODING 8192
SWIDTH 500 0
DWIDTH 8 0
BBX 1 1 0 0
BITMAP
00
ENDCHAR
STARTCHAR uni2001
ENCODING 8193
SWIDTH 1000 0
DWIDTH 17 0
BBX 1 1 0 0
BITMAP
00
ENDCHAR
STARTCHAR uni2002
ENCODING 8194
SWIDTH 500 0
DWIDTH 8 0
BBX 1 1 0 0
BITMAP
00
ENDCHAR
STARTCHAR uni2003
ENCODING 8195
SWIDTH 1000 0
DWIDTH 17 0
BBX 1 1 0 0
BITMAP
00
ENDCHAR
STARTCHAR uni2004
ENCODING 8196
SWIDTH 333 0
DWIDTH 6 0
BBX 1 1 0 0
BITMAP
00
ENDCHAR
STARTCHAR uni2005
ENCODING 8197
SWIDTH 250 0
DWIDTH 4 0
BBX 1 1 0 0
BITMAP
00
ENDCHAR
STARTCHAR uni2006
ENCODING 8198
SWIDTH 167 0
DWIDTH 3 0
BBX 1 1 0 0
BITMAP
00
ENDCHAR
STARTCHAR uni2007
ENCODING 8199
SWIDTH 623 0
DWIDTH 11 0
BBX 1 1 0 0
BITMAP
00
ENDCHAR
STARTCHAR uni2008
ENCODING 8200
SWIDTH 265 0
DWIDTH 4 0
BBX 1 1 0 0
BITMAP
00
ENDCHAR
STARTCHAR uni2009
ENCODING 8201
SWIDTH 200 0
DWIDTH 3 0
BBX 1 1 0 0
BITMAP
00
ENDCHAR
STARTCHAR uni200A
ENCODING 8202
SWIDTH 100 0
DWIDTH 2 0
BBX 1 1 0 0
BITMAP
00
ENDCHAR
STARTCHAR uni200B
ENCODING 8203
SWIDTH 0 0
DWIDTH 0 0
BBX 1 1 0 0
BITMAP
00
ENDCHAR
STARTCHAR uni2010
ENCODING 8208
SWIDTH 289 0
DWIDTH 5 0
BBX 4 1 0 5
BITMAP
F0
ENDCHAR
STARTCHAR uni2011
ENCODING 8209
SWIDTH 289 0
DWIDTH 5 0
BBX 4 1 0 5
BITMAP
F0
ENDCHAR
STARTCHAR figuredash
ENCODING 8210
SWIDTH 500 0
DWIDTH 8 0
BBX 7 1 1 5
BITMAP
FE
ENDCHAR
STARTCHAR endash
ENCODING 8211
SWIDTH 500 0
DWIDTH 8 0
BBX 7 1 1 5
BITMAP
FE
ENDCHAR
STARTCHAR emdash
ENCODING 8212
SWIDTH 1000 0
DWIDTH 17 0
BBX 16 1 1 5
BITMAP
FFFF
ENDCHAR
STARTCHAR afii00208
ENCODING 8213
SWIDTH 1000 0
DWIDTH 17 0
BBX 16 1 1 5
BITMAP
FFFF
ENDCHAR
STARTCHAR quoteleft
ENCODING 8216
SWIDTH 265 0
DWIDTH 4 0
BBX 3 5 1 8
BITMAP
60
80
80
E0
E0
ENDCHAR
STARTCHAR quoteright
ENCODING 8217
SWIDTH 265 0
DWIDTH 4 0
BBX 3 5 1 8
BITMAP
E0
E0
20
20
C0
ENDCHAR
STARTCHAR quotesinglbase
ENCODING 8218
SWIDTH 265 0
DWIDTH 4 0
BBX 3 6 1 -3
BITMAP
E0
E0
E0
20
20
C0
ENDCHAR
STARTCHAR quotereversed
ENCODING 8219
SWIDTH 265 0
DWIDTH 4 0
BBX 3 5 1 8
BITMAP
E0
E0
80
80
60
ENDCHAR
STARTCHAR quotedblleft
ENCODING 8220
SWIDTH 470 0
DWIDTH 8 0
BBX 7 5 1 8
BITMAP
22
CC
88
CC
CC
ENDCHAR
STARTCHAR quotedblright
ENCODING 8221
SWIDTH 470 0
DWIDTH 8 0
BBX 7 5 2 8
BITMAP
66
66
22
66
88
ENDCHAR
STARTCHAR quotedblbase
ENCODING 8222
SWIDTH 470 0
DWIDTH 8 0
BBX 6 6 1 -3
BITMAP
CC
CC
44
44
44
88
ENDCHAR
STARTCHAR uni201F
ENCODING 8223
SWIDTH 470 0
DWIDTH 8 0
BBX 7 5 2 8
BITMAP
CC
CC
88
CC
22
ENDCHAR
STARTCHAR dagger
ENCODING 8224
SWIDTH 623 0
DWIDTH 11 0
BBX 8 16 1 -3
BITMAP
18
18
18
18
18
FF
18
18
18
18
18
18
18
18
18
18
ENDCHAR
STARTCHAR daggerdbl
ENCODING 8225
SWIDTH 623 0
DWIDTH 11 0
BBX 8 16 1 -3
BITMAP
18
18
18
18
18
FF
18
18
18
18
FF
18
18
18
18
18
ENDCHAR
STARTCHAR bullet
ENCODING 8226
SWIDTH 623 0
DWIDTH 11 0
BBX 6 5 2 3
BITMAP
78
FC
FC
FC
78
ENDCHAR
STARTCHAR ellipsis
ENCODING 8230
SWIDTH 1000 0
DWIDTH 17 0
BBX 13 1 2 0
BITMAP
8208
ENDCHAR
STARTCHAR perthousand
ENCODING 8240
SWIDTH 1139 0
DWIDTH 19 0
BBX 20 13 0 0
BITMAP
781800
842000
846000
84C000
848000
790000
02F1E0
050A10
090A10
190A10
310A10
210A10
C0F1E0
ENDCHAR
STARTCHAR guilsinglleft
ENCODING 8249
SWIDTH 337 0
DWIDTH 6 0
BBX 4 7 1 1
BITMAP
10
20
60
C0
60
20
10
ENDCHAR
STARTCHAR guilsinglright
ENCODING 8250
SWIDTH 337 0
DWIDTH 6 0
BBX 4 7 1 1
BITMAP
80
40
60
30
60
40
80
ENDCHAR
STARTCHAR fraction
ENCODING 8260
SWIDTH 55 0
DWIDTH 1 0
BBX 11 13 -4 0
BITMAP
0060
00C0
0080
0100
0300
0200
0400
0800
1800
1000
2000
6000
C000
ENDCHAR
STARTCHAR oneinferior
ENCODING 8321
SWIDTH 374 0
DWIDTH 6 0
BBX 3 8 -11 -4
BITMAP
C0
40
40
40
40
40
40
E0
ENDCHAR
STARTCHAR twoinferior
ENCODING 8322
SWIDTH 374 0
DWIDTH 6 0
BBX 4 8 -10 -4
BITMAP
E0
90
10
10
20
40
80
F0
ENDCHAR
STARTCHAR threeinferior
ENCODING 8323
SWIDTH 374 0
DWIDTH 6 0
BBX 4 8 -10 -4
BITMAP
E0
90
10
60
10
10
90
E0
ENDCHAR
STARTCHAR uni20A5
ENCODING 8357
SWIDTH 967 0
DWIDTH 16 0
BBX 16 16 0 -3
BITMAP
0008
0010
0010
0020
EF3C
71C6
61C6
6186
6186
6186
6186
6386
F3CF
0400
0400
0800
ENDCHAR
STARTCHAR uni20A6
ENCODING 8358
SWIDTH 788 0
DWIDTH 13 0
BBX 12 13 1 0
BITMAP
E070
7020
7020
5820
7FE0
4E20
4620
4320
7FE0
41A0
40E0
4060
E060
ENDCHAR
STARTCHAR uni20A9
ENCODING 8361
SWIDTH 955 0
DWIDTH 16 0
BBX 16 13 0 0
BITMAP
F887
7082
31C4
31C4
3FFC
3AC4
1A68
1A68
1FF8
1C30
0C30
0C30
0830
ENDCHAR
STARTCHAR Euro
ENCODING 8364
SWIDTH 711 0
DWIDTH 12 0
BBX 14 13 -3 0
BITMAP
01FC
060C
0C04
0C00
FFC0
1800
1800
1800
FFC0
0C00
0C00
0704
01F8
ENDCHAR
STARTCHAR uni20AD
ENCODING 8365
SWIDTH 747 0
DWIDTH 13 0
BBX 12 13 1 0
BITMAP
F1E0
60C0
6100
6200
6400
7800
FFF0
6C00
6600
6300
6380
61C0
F3F0
ENDCHAR
STARTCHAR uni2103
ENCODING 8451
SWIDTH 957 0
DWIDTH 16 0
BBX 14 13 1 0
BITMAP
41FC
A60C
AC04
4C00
1800
1800
1800
1800
1800
0C00
0C00
0704
01F8
ENDCHAR
STARTCHAR uni2109
ENCODING 8457
SWIDTH 830 0
DWIDTH 14 0
BBX 12 13 1 0
BITMAP
4FF0
A610
A600
4600
0600
0620
07E0
0620
0600
0600
0600
0600
0F80
ENDCHAR
STARTCHAR trademark
ENCODING 8482
SWIDTH 1044 0
DWIDTH 18 0
BBX 17 7 0 6
BITMAP
FE7380
923300
103B00
103F00
102D00
102D00
386180
ENDCHAR
STARTCHAR uni212A
ENCODING 8490
SWIDTH 747 0
DWIDTH 13 0
BBX 12 13 1 0
BITMAP
F1E0
60C0
6100
6200
6400
7800
7800
6C00
6600
6300
6380
61C0
F3F0
ENDCHAR
STARTCHAR uni212B
ENCODING 8491
SWIDTH 795 0
DWIDTH 14 0
BBX 14 16 0 0
BITMAP
0380
0380
0000
0200
0300
0700
0580
0D80
09C0
08C0
10E0
1FE0
2070
2030
4038
E07C
ENDCHAR
STARTCHAR uni2132
ENCODING 8498
SWIDTH 584 0
DWIDTH 10 0
BBX 8 13 1 0
BITMAP
1F
06
06
06
06
46
7E
46
06
06
06
86
FF
ENDCHAR
STARTCHAR universal
ENCODING 8704
SWIDTH 795 0
DWIDTH 14 0
BBX 14 13 0 0
BITMAP
E07C
4038
2030
2070
1FE0
10E0
08C0
09C0
0D80
0580
0700
0300
0200
ENDCHAR
STARTCHAR existential
ENCODING 8707
SWIDTH 601 0
DWIDTH 10 0
BBX 9 13 1 0
BITMAP
7F80
4300
0300
0300
0300
2300
3F00
2300
0300
0300
0300
8300
FF80
ENDCHAR
STARTCHAR uni2204
ENCODING 8708
SWIDTH 601 0
DWIDTH 10 0
BBX 9 16 1 -1
BITMAP
0080
0100
7F80
4300
0300
0700
0700
2B00
3F00
3300
1300
2300
2300
C300
FF80
8000
ENDCHAR
STARTCHAR minus
ENCODING 8722
SWIDTH 623 0
DWIDTH 11 0
BBX 10 1 0 5
BITMAP
FFC0
ENDCHAR
STARTCHAR fraction
ENCODING 8725
SWIDTH 55 0
DWIDTH 1 0
BBX 11 13 -4 0
BITMAP
0060
00C0
0080
0100
0300
0200
0400
0800
1800
1000
2000
6000
C000
ENDCHAR
STARTCHAR periodcentered
ENCODING 8729
SWIDTH 623 0
DWIDTH 11 0
BBX 2 2 4 4
BITMAP
C0
C0
ENDCHAR
STARTCHAR uni2236
ENCODING 8758
SWIDTH 265 0
DWIDTH 4 0
BBX 2 9 1 0
BITMAP
C0
C0
00
00
00
00
00
C0
C0
ENDCHAR
STARTCHAR uni2259
ENCODING 8793
SWIDTH 623 0
DWIDTH 11 0
BBX 10 8 0 2
BITMAP
1E00
3300
0000
FFC0
0000
0000
0000
FFC0
ENDCHAR
STARTCHAR uni225A
ENCODING 8794
SWIDTH 623 0
DWIDTH 11 0
BBX 10 8 0 2
BITMAP
3300
1E00
0000
FFC0
0000
0000
0000
FFC0
ENDCHAR
STARTCHAR notequal
ENCODING 8800
SWIDTH 623 0
DWIDTH 11 0
BBX 10 16 0 -3
BITMAP
0040
0080
0080
0100
0100
0200
FFC0
0400
0400
0800
FFC0
1000
1000
2000
2000
4000
ENDCHAR
STARTCHAR equivalence
ENCODING 8801
SWIDTH 623 0
DWIDTH 11 0
BBX 10 5 0 3
BITMAP
FFC0
0000
FFC0
0000
FFC0
ENDCHAR
STARTCHAR uni2262
ENCODING 8802
SWIDTH 623 0
DWIDTH 11 0
BBX 10 16 0 -2
BITMAP
0040
0080
0080
0100
0100
0200
FFC0
0400
FFC0
0800
FFC0
1000
1000
2000
2000
4000
ENDCHAR
STARTCHAR lessequal
ENCODING 8804
SWIDTH 623 0
DWIDTH 11 0
BBX 10 13 0 -2
BITMAP
0040
00C0
0300
0C00
3000
C000
3000
0C00
0300
00C0
0040
0000
FFC0
ENDCHAR
STARTCHAR greaterequal
ENCODING 8805
SWIDTH 623 0
DWIDTH 11 0
BBX 10 13 0 -2
BITMAP
8000
C000
3000
0C00
0300
00C0
0300
0C00
3000
C000
8000
0000
FFC0
ENDCHAR
STARTCHAR uni226E
ENCODING 8814
SWIDTH 623 0
DWIDTH 11 0
BBX 10 16 0 -2
BITMAP
0040
0080
0080
0140
01C0
0300
0E00
3400
C400
3800
0C00
1300
10C0
2040
2000
4000
ENDCHAR
STARTCHAR uni226F
ENCODING 8815
SWIDTH 623 0
DWIDTH 11 0
BBX 10 16 0 -2
BITMAP
0040
0080
0080
8100
C100
3200
0E00
0700
04C0
0B00
0C00
3000
D000
A000
2000
4000
ENDCHAR
STARTCHAR uni2270
ENCODING 8816
SWIDTH 623 0
DWIDTH 11 0
BBX 10 16 0 -3
BITMAP
0040
0080
00C0
01C0
0300
0E00
3200
C400
3400
0C00
0B00
10C0
1040
2000
FFC0
4000
ENDCHAR
STARTCHAR uni2271
ENCODING 8817
SWIDTH 623 0
DWIDTH 11 0
BBX 10 16 0 -3
BITMAP
0040
0080
8080
C100
3100
0E00
0300
04C0
0700
0C00
3800
D000
9000
2000
FFC0
4000
ENDCHAR
STARTCHAR fi
ENCODING -1
SWIDTH 672 0
DWIDTH 11 0
BBX 10 13 1 0
BITMAP
3D80
6580
6400
6000
FF80
6180
6180
6180
6180
6180
6180
6180
FBC0
ENDCHAR
STARTCHAR fl
ENCODING -1
SWIDTH 672 0
DWIDTH 11 0
BBX 10 13 1 0
BITMAP
3F80
6180
6180
6180
FD80
6180
6180
6180
6180
6180
6180
6180
F3C0
ENDCHAR
ENDFONT
